<?xml version="1.0" encoding="UTF-8" standalone="no"?><?xml-stylesheet type="text/css" href="illustration.css" ?><svg xmlns="http://www.w3.org/2000/svg" xmlns:xlink="http://www.w3.org/1999/xlink" width="1091.393" height="694.523" fill="none"><defs><linearGradient id="j"><stop offset="0" stop-color="#bfe6ee" stop-opacity=".242"/><stop offset=".489" stop-color="#bfe6ee" stop-opacity=".991"/><stop offset="1" stop-color="#bfe6ee" stop-opacity="0"/></linearGradient><linearGradient id="l"><stop offset="0" stop-color="#d6effd"/><stop offset=".678" stop-color="#abebff" stop-opacity=".781"/><stop offset="1" stop-opacity="0"/></linearGradient><linearGradient id="n"><stop offset="0"/><stop offset=".544" stop-color="#272b2d" stop-opacity=".995"/><stop offset="1" stop-color="#0193f3" stop-opacity="0"/></linearGradient><linearGradient id="e"><stop offset="0" stop-color="#4b98e0"/><stop offset="1" stop-color="#065cb4"/></linearGradient><linearGradient id="m"><stop offset="0" stop-color="#0b63b0"/><stop offset=".71" stop-color="#125191"/><stop offset="1" stop-color="#0b2c4b"/></linearGradient><linearGradient id="d"><stop offset="0" stop-color="#2b98bf"/><stop offset="1" stop-color="#106db9"/></linearGradient><linearGradient id="c"><stop offset="0" stop-color="#0b63b5"/><stop offset="1" stop-color="#103d66"/></linearGradient><linearGradient id="a"><stop offset="0" stop-color="#0c7dbe"/><stop offset="1" stop-color="#114372"/></linearGradient><linearGradient id="b"><stop offset="0" stop-color="#0a64b5"/><stop offset="1" stop-color="#0d7dc0"/></linearGradient><linearGradient id="g"><stop offset="0" stop-color="#63c7f6"/><stop offset="1" stop-color="#0368ca"/></linearGradient><linearGradient id="k"><stop offset="0" stop-color="#28428f"/><stop offset="1" stop-color="#0862be"/></linearGradient><linearGradient id="h"><stop offset="0" stop-color="#d6effd"/><stop offset="1" stop-color="#0193f3"/></linearGradient><linearGradient id="i"><stop offset="0" stop-color="#fcfeff"/><stop offset="1" stop-color="#7bbed5" stop-opacity=".722"/></linearGradient><linearGradient gradientTransform="matrix(.96689 0 0 1.25585 -153.523 -67.723)" xlink:href="#a" id="r" x1="-194.993" y1="153.609" x2="-188.342" y2="162.981" gradientUnits="userSpaceOnUse"/><linearGradient gradientTransform="matrix(.96689 0 0 1.25585 -153.523 -67.723)" xlink:href="#b" id="s" x1="-233.605" y1="159.762" x2="-210.357" y2="139.604" gradientUnits="userSpaceOnUse"/><linearGradient gradientTransform="matrix(.71055 0 0 1.4215 -141.067 15.805)" xlink:href="#c" id="t" x1="-194.926" y1="160.269" x2="-193.709" y2="165.547" gradientUnits="userSpaceOnUse"/><linearGradient gradientTransform="matrix(-.03888 -.52048 .97511 -.37337 76.595 154.966)" xlink:href="#d" id="u" x1="-200.986" y1="149.754" x2="-194.666" y2="164.402" gradientUnits="userSpaceOnUse"/><linearGradient xlink:href="#e" id="q" x1="-339.554" y1="103.932" x2="-330.764" y2="109.857" gradientUnits="userSpaceOnUse"/><linearGradient id="f"><stop offset="0" stop-color="#fff"/><stop offset=".524" stop-color="#fff"/><stop offset="1" stop-color="#70ebf6" stop-opacity="0"/></linearGradient><linearGradient xlink:href="#j" id="z" x1="390.525" y1="108.655" x2="449.038" y2="108.263" gradientUnits="userSpaceOnUse"/><linearGradient xlink:href="#h" id="A" x1="-492.679" y1="-16.31" x2="-491.295" y2="-5.706" gradientUnits="userSpaceOnUse"/><linearGradient xlink:href="#k" id="B" x1="447.388" y1="226.591" x2="448.68" y2="219.794" gradientUnits="userSpaceOnUse"/><radialGradient xlink:href="#f" id="C" cx="381.987" cy="98.295" fx="381.987" fy="98.295" r="77.375" gradientUnits="userSpaceOnUse" gradientTransform="matrix(.8185 -.01994 .02067 .8483 174.836 198.55)"/><radialGradient xlink:href="#g" id="w" cx="414.308" cy="114.734" fx="414.308" fy="114.734" r="29.307" gradientTransform="matrix(-.0014 .49315 -.7134 .08948 501.584 -103.467)" gradientUnits="userSpaceOnUse"/><radialGradient xlink:href="#h" id="x" cx="419.554" cy="103.152" fx="419.554" fy="103.152" r="29.076" gradientTransform="matrix(.79651 .01922 -.02073 .53476 87.512 39.928)" gradientUnits="userSpaceOnUse"/><radialGradient xlink:href="#i" id="y" cx="420.738" cy="89.85" fx="420.738" fy="89.85" r="17.807" gradientTransform="matrix(1.65175 .10472 -.01535 1.15615 -272.836 -58.09)" gradientUnits="userSpaceOnUse"/><radialGradient xlink:href="#l" id="o" cx="-354.082" cy="109.454" fx="-354.082" fy="109.454" r="44.296" gradientTransform="matrix(1 0 0 1.2982 0 -32.638)" gradientUnits="userSpaceOnUse"/><radialGradient xlink:href="#m" id="p" cx="-354.61" cy="112.2" fx="-354.61" fy="112.2" r="33.174" gradientTransform="matrix(1.19316 -.31658 .50647 1.11497 14.503 -124.44)" gradientUnits="userSpaceOnUse"/><radialGradient xlink:href="#n" id="v" cx="-200.886" cy="241.104" fx="-200.886" fy="241.104" r="27.895" gradientTransform="matrix(1.07387 0 0 .55026 10.543 110.526)" gradientUnits="userSpaceOnUse"/></defs><g><path d="M132.84 562.02l68.164-39.355 218.8 102.03-68.164 39.354z" stroke="#7d9fc0" stroke-opacity=".196"/><g stroke="#191f26"><g transform="translate(-898.195 -412.77) scale(4.17355)" stroke="#637d97" stroke-opacity=".196"><g stroke-width=".265"><path d="M316.156 113.844l.067 24.145 14.9 7.016V120.81z"/><path d="M331.124 145.005V120.81l18.058-10.44-.085 24.345z"/><path d="M316.16 113.846l18.085-10.441 14.937 6.965-18.059 10.456z"/></g><path d="M320.795 118.581a1.19.75 51.562 00-.516.602 1.19.75 51.562 00.237.734 4.324 2.71 52.856 00-.286 1.252 4.324 2.71 52.856 00.351 1.696 1.19.75 51.562 00-.302.551 1.19.75 51.562 00.945 1.385 1.19.75 51.562 00.607.061 4.324 2.71 52.856 001.787 1.376 4.324 2.71 52.856 001.794.327 1.19.75 51.562 00.565.453 1.19.75 51.562 00.945-.505 1.19.75 51.562 00-.261-.773 4.324 2.71 52.856 00.345-1.347 4.324 2.71 52.856 00-.317-1.601 1.19.75 51.562 00.233-.512 1.19.75 51.562 00-.945-1.385 1.19.75 51.562 00-.477-.092 4.324 2.71 52.856 00-1.882-1.48 4.324 2.71 52.856 00-1.924-.299 1.19.75 51.562 00-.47-.346 1.19.75 51.562 00-.429-.097z" stroke-width=".265"/><ellipse cx="358.388" cy="-31.211" rx="2.661" ry="2.452" transform="skewY(25.447) scale(.90298 1)" stroke-width=".278"/><g transform="matrix(1 .4663 0 1 69.067 -130.559)" stroke-width=".265"><path d="M254.283 139.77a6.053 5.92 77.635 00-3.68 1.273.945.945 45 00-.713-.328.945.945 45 00-.945.945.945.945 45 00.402.773 6.053 5.92 77.635 00-.989 3.328 6.053 5.92 77.635 00.972 3.322.945.945 45 00-.385.76.945.945 45 00.945.944.945.945 45 00.685-.296 6.053 5.92 77.635 003.708 1.373 6.053 5.92 77.635 003.706-1.295.945.945 45 00.604.218.945.945 45 00.944-.945.945.945 45 00-.292-.681 6.053 5.92 77.635 00.964-3.287 6.053 5.92 77.635 00-1.061-3.451.945.945 45 00.39-.763.945.945 45 00-.945-.945.945.945 45 00-.722.334 6.053 5.92 77.635 00-3.588-1.278z"/><ellipse cx="254.295" cy="143.114" rx="4.699" ry="4.795" transform="skewY(.546) scale(.99995 1)"/><ellipse cx="254.295" cy="143.114" rx="1.322" ry="1.349" transform="skewY(.546) scale(.99995 1)"/></g></g></g><g stroke="#7d9fc0" stroke-width=".139" stroke-opacity=".196"><path d="M182.846 172.305c-37.542 13.584-61.36 36.064-59.936 56.57l98.703-16.076-.113-4.941z" transform="matrix(-5.96076 .44697 0 5.94703 1816.418 -969.258)"/><path d="M182.847 167.585a49.455 100.142 79.038 00-59.937 56.569l98.704-16.075z" transform="matrix(-5.96076 .44697 0 5.94703 1816.418 -969.258)"/><path d="M192.478 177.614a37.169 75.264 79.038 00-45.046 42.515l74.182-12.081z" transform="matrix(-5.96076 .44697 0 5.94703 1816.418 -969.258)"/></g><path d="M826.973 390.994c62.751 72.606 44.1 151.416-48.34 204.268-97.426 55.57-389.896 47.309-389.896 47.309l-27.521 16.399s340.84 14.315 450.725-48.364c99.052-56.673 121.61-140.487 58.943-219.014z" stroke="#7d9fc0" stroke-width="1.222" stroke-opacity=".196"/><g stroke="#7d9fc0" stroke-width="1.411" stroke-opacity=".167"><path d="M1009.34 249.462c-25.72-37.078-49.68-42.623-73.557-46.692l-2.227 92.304c25.269-1.535 49.823 26.567 74.362 55.29z"/><path d="M1009.853 249.636c-4.55 24.151-12.491 48.388-71.39 72.8l-.858 83.32c54.285-22.52 65.145-35.46 69.804-54.831z" stroke-opacity=".196"/></g><path d="M95.91 586.21l23.308-13.457 81.364 37.941-23.309 13.458z" stroke="#7d9fc0" stroke-opacity=".196"/></g><g><g transform="matrix(-5.96076 .44697 0 5.94703 1816.418 -969.258)"><ellipse cx="-354.081" cy="109.454" rx="44.296" ry="57.505" transform="matrix(-.89316 -.44973 -.87897 .47688 0 0)" fill="url(#o)"/><ellipse cx="-354.171" cy="107.759" rx="33.174" ry="43.066" transform="matrix(-.89316 -.44973 -.87897 .47688 0 0)" fill="#14222f"/><ellipse cx="-351.397" cy="104.942" rx="33.174" ry="43.066" transform="matrix(-.89316 -.44973 -.87897 .47688 0 0)" fill="url(#p)"/><path d="M205.222 199.826a13.316 26.964 79.038 00-7.804 17.366 13.316 26.964 79.038 0029.258 3.408l-5.061-12.52z" fill="#114376"/><ellipse cx="-351.398" cy="104.942" rx="20.623" ry="26.772" transform="matrix(-.89316 -.44973 -.87897 .47688 0 0)" stroke="#105c9c" stroke-width=".142"/><path d="M-339.664 78.843a23.278 30.22 0 0111.177 20.756 23.278 30.22 0 01-4.914 24.509l-17.997-19.166z" transform="matrix(-.89316 -.44973 -.87897 .47688 0 0)" fill="url(#q)"/><ellipse cx="-351.398" cy="104.942" rx="27.183" ry="35.289" transform="matrix(-.89316 -.44973 -.87897 .47688 0 0)" stroke="#114a84" stroke-width=".187"/><path d="M214.941 212.055l-28.84 17.588-4.502-2.091 24.537-14.786 5.738-.133z" fill="#000" fill-opacity=".173"/><path d="M-319.602 127.067a36.075 46.833 0 01-31.98 24.707l.184-46.832z" transform="matrix(-.89316 -.44973 -.87897 .47688 0 0)" fill="url(#r)"/><path d="M203.36 226.134a17.731 35.905 79.038 0027.707-2.101l-9.453-15.954z" fill="#000" fill-opacity=".203"/><path d="M-377.314 141.908a38.503 49.984 0 01-8.894-15.605l34.81-21.361z" transform="matrix(-.89316 -.44973 -.87897 .47688 0 0)" fill="url(#s)"/><path d="M229.09 206.281l35.073-11.363s-1.83-2.242-3.612-2.852c-1.78-.61-24.783 7.862-24.783 7.862l-1.83 1.477-1.287 1.187z" fill="#000" fill-opacity=".594"/><path d="M-267.584 231.618c-4.358 10.573-9.963 20.764-19.228 28.49l.33-48.863z" transform="matrix(-.07449 -.99722 .93388 -.35758 0 0)" fill="url(#t)"/><ellipse cx="-351.398" cy="104.942" rx="6.288" ry="8.164" transform="matrix(-.89316 -.44973 -.87897 .47688 0 0)" fill="#333" stroke="#fff" stroke-width=".249"/><path d="M191.112 205.781c-4.935 6.409-3.268 12.778 4.33 16.553" stroke="#268ada" stroke-width=".257"/><path d="M191.389 205.76c-4.935 6.409-3.268 12.778 4.33 16.553" stroke="#105286" stroke-width=".257"/><path d="M231.56 190.955c7.49.416 14.788 1.844 20.595 6.602l-33.536 12.592z" fill="url(#u)"/><path d="M231.56 190.955c7.49.416 14.788 1.844 20.595 6.602" stroke="#0193f3" stroke-width=".271"/><path d="M231.658 190.819c7.492.415 14.79 1.844 20.596 6.601" stroke="#0e4e88" stroke-width=".271"/><ellipse ry="15.25" rx="29.865" transform="matrix(-.98464 .17462 .08413 .99645 0 0)" cy="243.195" cx="-205.183" fill="url(#v)"/><path d="M202.014 195.2l-18.032 9.234-5.878-.253s7.784-9.667 10.976-10.663c3.192-.995 11.382-3.828 11.382-3.828l1.652 1.497 5.977-2.402 2.808 2.47z" fill="#000" fill-opacity=".186"/></g></g><g><path d="M431.416 308.835V255.17s4.718-30.077 30.372-37.154c25.654-7.077 15.334-4.423 15.334-4.423s-35.385 21.525-35.385 50.423c0 28.897.59 61.628.59 61.628z" fill="#fff" fill-opacity=".556"/><g><g transform="matrix(-3.6651 .27483 0 3.65665 2030.862 -166.067)"><path d="M447.205 99.66c-17.71-2.09-38.394 1.772-56.23 3.645-1.276.133-.383 9.832-.448 10.702-.099 1.33 1.04 2.807 3.284 3.963l16.785 8.647c3.713 1.913 9.104 2.146 12.012.53l24.263-13.482c1.217-.676 1.825-1.515 1.829-2.443.006-1.29.993-11.441-1.495-11.561z" fill="url(#w)"/><path d="M445.354 97.872l-16.785-8.648c-3.713-1.913-9.105-2.145-12.013-.53l-24.262 13.483c-2.908 1.616-2.253 4.341 1.46 6.254l16.785 8.648c3.713 1.913 9.105 2.146 12.013.53l24.262-13.483c2.908-1.616 2.253-4.341-1.46-6.254z" fill="url(#x)"/><ellipse cx="-188.492" cy="-375.046" transform="matrix(-.28578 -.9583 -.978 .2086 0 0)" rx="9.298" ry="19.205" fill="#0d57a0"/><ellipse cx="-188.049" cy="-375.176" transform="matrix(-.28578 -.9583 -.978 .2086 0 0)" rx="9.298" ry="19.205" fill="#028aec"/><path d="M421.363 69.435c9.518-.716 17.181 5.947 17.181 14.938v14.162c0 .05-.006.1-.008.15-.068 4.361-6.56 8.964-15.269 10.825-9.72 2.073-18.714.016-20.089-4.594-.138-1.278-.243-2.514-.247-3.705V87.05c0-8.991 7.663-16.805 17.18-17.52z" fill="url(#y)"/><path d="M419.834 118.607l-2.092.157-.603 9.4c1.1.313 2.078.161 3.178-.158z" fill="#fff" fill-opacity=".249"/><path d="M392.294 102.177c-2.908 1.616-2.253 4.341 1.46 6.254l16.785 8.648c3.713 1.913 9.105 2.146 12.013.53l24.262-13.483c2.908-1.616 2.253-4.341-1.46-6.254" stroke="url(#z)" stroke-width=".21"/><path d="M403.178 103.205c-.138-1.277-.243-.803-.247-1.994V87.05c0-8.991 7.663-16.805 17.18-17.52l1.252-.094c9.518-.716 17.181 5.947 17.181 14.938v14.162c0 .05-.006.1-.008.15" stroke="#fff" stroke-width=".393"/><path d="M445.23 114.563v-3.446l-20.088 11.093v3.553" stroke="#fff" stroke-width=".273" stroke-opacity=".293"/><path d="M445.496 114.372v-3.693l-20.088 11.092v3.84" stroke="#000" stroke-width=".273" stroke-opacity=".293"/></g><g><path transform="matrix(3.27352 -1.88997 3.2215 1.50221 2203.922 -566.362)" d="M-500.429-12.462l15.373-.27.05 4.48-15.373.27z" fill="url(#A)"/><path d="M526.203 360.769v7.715l6.568 3.234-.106 34.567 7.297 3.859v-42.808z" fill="#2a4696"/><path d="M440.462 214.198v11.564l13.597 7.075-.057-11.645z" fill="url(#B)" transform="matrix(-3.6651 .27483 0 3.65665 2203.922 -566.362)"/><path d="M457.65 219.146l-13.141-7.109" stroke="#fff" stroke-width=".226" transform="matrix(-3.6651 .27483 0 3.65665 2203.922 -566.362)"/></g></g><g stroke-opacity=".293"><path d="M545.696 374.593l39.116-22.583v18.583l-39.116 22.583z" fill="#0862be"/><g fill="#177cd3" stroke-width=".708" transform="translate(-804.695 644.056) skewY(-30)"><circle r="1.811" cy="517.324" cx="1356.1"/><circle r="1.811" cy="517.324" cx="1362.799"/><circle r="1.811" cy="517.324" cx="1369.497"/><circle r="1.811" cy="517.324" cx="1376.196"/><circle r="1.811" cy="517.324" cx="1382.895"/><circle r="1.811" cy="524.536" cx="1356.1"/><circle r="1.811" cy="524.536" cx="1362.799"/><circle r="1.811" cy="524.536" cx="1369.497"/><circle r="1.811" cy="524.536" cx="1376.196"/><circle r="1.811" cy="524.536" cx="1382.895"/></g><path d="M584.812 352.01l-39.115 22.584v2.482l37.345-21.563v16.102l1.77-1.02z" fill="#1d2f64"/><g transform="translate(-805.285 643.465) skewY(-30)" fill="#1d2f64" stroke-width=".708"><circle r="1.811" cy="517.324" cx="1356.1"/><circle r="1.811" cy="517.324" cx="1362.799"/><circle r="1.811" cy="517.324" cx="1369.497"/><circle r="1.811" cy="517.324" cx="1376.196"/><circle r="1.811" cy="517.324" cx="1382.895"/><circle r="1.811" cy="524.536" cx="1356.1"/><circle r="1.811" cy="524.536" cx="1362.799"/><circle r="1.811" cy="524.536" cx="1369.497"/><circle r="1.811" cy="524.536" cx="1376.196"/><circle r="1.811" cy="524.536" cx="1382.895"/></g></g><path d="M545.697 374.594v18.583l39.115-22.583" stroke="#177cd3"/><path d="M410.13 295.478a78.391 77.444 0 0137.396-103.098 78.391 77.444 0 01104.363 36.936 78.391 77.444 0 01-37.38 103.104 78.391 77.444 0 01-104.37-36.922l70.873-33.096z" fill="url(#C)"/><g><path d="M516.212 274.618a27.778 27.776 46.009 11-55.554 0 27.778 27.776 46.009 1155.554 0z" fill="#009bf9"/><path overflow="visible" d="M488.278 258.298c-4.217.002-8.433 1.604-11.64 4.807l-.142.147a2.233 2.233 0 00.142 3.153 2.23 2.23 0 003.148-.147 11.989 11.989 0 0117.002-.001 12 12 0 010 17.004 11.987 11.987 0 01-16.996-.005 2.28 2.457 44.804 00-2.174-.59 2.22 2.22 0 00-1.586 1.583 2.285 2.463 44.804 00.606 2.158c6.414 6.41 16.89 6.412 23.303 0 6.413-6.417 6.413-16.892 0-23.302a17.11 18.445 44.804 00-11.663-4.807zm0 7.72a7.827 8.437 44.804 00-6.188 2.561c-3.397 3.395-3.397 8.976 0 12.377 3.403 3.4 8.979 3.397 12.376-.003 3.402-3.396 3.402-8.977 0-12.377a9.095 9.804 44.804 00-6.188-2.558zm-21.124.754a2.08 2.242 44.804 00-2.244 1.786 22.315 24.055 44.804 000 12.306 2.44 2.63 44.804 002.85 1.653 2.08 2.242 44.804 001.663-2.85 17.356 18.71 44.804 010-9.913 2.388 2.574 44.804 00-1.128-2.688 2.377 2.562 44.804 00-1.14-.294zm7.144 2.042a1.965 2.119 44.804 00-1.953 1.675c-.76 2.866-.743 5.673 0 8.532a2.314 2.494 44.804 002.731 1.567 1.988 2.143 44.804 001.58-2.726c-.594-2.207-.606-4.007 0-6.209a2.314 2.494 44.804 00-2.358-2.839zm13.98 1.5a4.622 4.982 44.804 013.147 1.304 4.43 4.43 0 010 6.298 4.408 4.408 0 01-6.277-.003 4.43 4.43 0 010-6.298 3.936 4.243 44.804 013.13-1.301z" style="marker:none" fill="#fff"/><path overflow="visible" d="M506.164 260.292a2.217 2.39 44.804 00.185-1.898 2.57 2.771 44.804 00-.577-.946 24.526 26.439 44.804 00-10.582-6.269 2.328 2.328 0 00-2.88 1.609 2.434 2.624 44.804 001.61 2.883 19.07 20.557 44.804 018.521 5.049 2.302 2.482 44.804 002.886.405 2.017 2.174 44.804 00.837-.833z" style="marker:none" fill="#fff"/><path overflow="visible" d="M505.832 289.337a2.297 2.476 44.804 01.178 1.906 2.355 2.355 0 01-.582.933 20.236 21.814 44.804 01-10.606 6.234 2.434 2.624 44.804 01-2.874-1.621 2.329 2.329 0 011.62-2.87 15.74 16.967 44.804 008.546-5.026A2.182 2.353 44.804 01505 288.5a2.514 2.71 44.804 01.832.838z" style="marker:none" fill="#fff"/></g></g></svg>