<?xml version="1.0" encoding="UTF-8" standalone="no"?>
<svg
   xmlns:dc="http://purl.org/dc/elements/1.1/"
   xmlns:cc="http://creativecommons.org/ns#"
   xmlns:rdf="http://www.w3.org/1999/02/22-rdf-syntax-ns#"
   xmlns:svg="http://www.w3.org/2000/svg"
   xmlns="http://www.w3.org/2000/svg"
   xmlns:sodipodi="http://sodipodi.sourceforge.net/DTD/sodipodi-0.dtd"
   xmlns:inkscape="http://www.inkscape.org/namespaces/inkscape"
   version="1.1"
   x="0px"
   y="0px"
   viewBox="0 0 84 84"
   xml:space="preserve"
   id="svg14"
   sodipodi:docname="speaker.app.logo.svg"
   width="84"
   height="84"
   inkscape:version="0.92.5 (2060ec1f9f, 2020-04-08)"
   inkscape:export-filename="/home/jeremy/Desktop/logo192.png"
   inkscape:export-xdpi="219.42999"
   inkscape:export-ydpi="219.42999"><metadata
     id="metadata20"><rdf:RDF><cc:Work
         rdf:about=""><dc:format>image/svg+xml</dc:format><dc:type
           rdf:resource="http://purl.org/dc/dcmitype/StillImage" /><dc:title></dc:title></cc:Work></rdf:RDF></metadata><defs
     id="defs18" /><sodipodi:namedview
     pagecolor="#ffffff"
     bordercolor="#666666"
     borderopacity="1"
     objecttolerance="10"
     gridtolerance="10"
     guidetolerance="10"
     inkscape:pageopacity="0"
     inkscape:pageshadow="2"
     inkscape:window-width="1966"
     inkscape:window-height="1150"
     id="namedview16"
     showgrid="false"
     inkscape:zoom="8.064"
     inkscape:cx="20.236607"
     inkscape:cy="58.017971"
     inkscape:window-x="1277"
     inkscape:window-y="644"
     inkscape:window-maximized="0"
     inkscape:current-layer="svg14"
     fit-margin-left="11"
     fit-margin-right="11"
     fit-margin-top="0"
     fit-margin-bottom="0" /><g
     id="g8"
     transform="translate(-8,-8)"><path
       d="M 72,8 H 28 c -5,0 -9,4 -9,9 v 66 c 0,5 4,9 9,9 h 44 c 5,0 9,-4 9,-9 V 17 C 81,12 77,8 72,8 Z m -22,9.5 c 6.4,0 11.6,5.2 11.6,11.5 0,6.3 -5.2,11.5 -11.6,11.5 -6.4,0 -11.6,-5.2 -11.6,-11.5 0,-6.3 5.2,-11.5 11.6,-11.5 z m 0,65.3 C 39,82.8 30.1,73.9 30.1,63 30.1,52.1 39,43.2 50,43.2 61,43.2 69.9,52.1 69.9,63 69.9,73.9 61,82.8 50,82.8 Z"
       id="path2"
       inkscape:connector-curvature="0" /><circle
       cx="50"
       cy="29"
       id="ellipse4"
       r="5.5999999" /><path
       d="m 50,53.3 c -5.1,0 -9.2,4.1 -9.2,9.2 0,5.1 4.1,9.2 9.2,9.2 5.1,0 9.2,-4.1 9.2,-9.2 0,-5 -4.1,-9.2 -9.2,-9.2 z"
       id="path6"
       inkscape:connector-curvature="0" /></g></svg>