<?xml version="1.0" encoding="UTF-8" standalone="no"?><?xml-stylesheet type="text/css" href="illustration.css" ?><svg xmlns="http://www.w3.org/2000/svg" xmlns:xlink="http://www.w3.org/1999/xlink" width="1091.393" height="694.523" fill="none"><defs><linearGradient id="A"><stop offset="0" stop-color="#fff"/><stop offset="1" stop-color="#fff" stop-opacity="0"/></linearGradient><linearGradient id="z"><stop offset="0" stop-color="#83adbc"/><stop offset="1" stop-color="#83adbc" stop-opacity="0"/></linearGradient><linearGradient id="y"><stop offset="0" stop-color="#fff"/><stop offset="1" stop-color="#fff" stop-opacity="0"/></linearGradient><linearGradient id="x"><stop offset="0" stop-color="#407992"/><stop offset="1" stop-color="#325f72"/></linearGradient><linearGradient id="w"><stop offset="0" stop-color="#666"/><stop offset="1" stop-color="#666" stop-opacity="0"/></linearGradient><linearGradient id="v"><stop offset="0" stop-color="#475a6c"/><stop offset="1" stop-color="#475a6c"/></linearGradient><linearGradient id="u"><stop offset="0" stop-color="#648f9e"/><stop offset="1" stop-color="#557d8d"/></linearGradient><linearGradient id="t"><stop offset="0" stop-color="#cbf5f8"/><stop offset="1" stop-color="#cbf5f8" stop-opacity="0"/></linearGradient><linearGradient id="k"><stop offset="0" stop-color="#41758e"/><stop offset="1" stop-color="#0f2834" stop-opacity="0"/></linearGradient><linearGradient id="j"><stop offset="0" stop-color="#5b94b1"/><stop offset="1" stop-color="#3f697c"/></linearGradient><linearGradient id="q"><stop offset="0" stop-color="#fff"/><stop offset="1" stop-color="#fff" stop-opacity="0"/></linearGradient><linearGradient id="b"><stop offset="0" stop-color="#7effff"/><stop offset=".552" stop-color="#5aeeee" stop-opacity=".447"/><stop offset="1" stop-color="#ececec" stop-opacity="0"/></linearGradient><linearGradient id="d"><stop offset="0" stop-color="#b8e3ea"/><stop offset="1" stop-color="#88bfce"/></linearGradient><linearGradient id="c"><stop offset="0" stop-color="#aad5de"/><stop offset="1" stop-color="#7fc3d1"/></linearGradient><linearGradient id="o"><stop offset="0" stop-color="#11374c"/><stop offset="1" stop-color="#335a6f"/></linearGradient><linearGradient id="m"><stop offset="0" stop-color="#04263d"/><stop offset="1" stop-color="#2c5270"/></linearGradient><linearGradient id="l"><stop offset="0" stop-color="#0e3048"/><stop offset="1" stop-color="#2a506e"/></linearGradient><linearGradient id="n"><stop offset="0" stop-color="#5c94b0"/><stop offset="1" stop-color="#3f697c"/></linearGradient><linearGradient id="p"><stop offset="0" stop-color="#5b95b1"/><stop offset="1" stop-color="#6890a4"/></linearGradient><linearGradient id="h"><stop offset="0" stop-color="#4b829e"/><stop offset="1" stop-color="#5d8294"/></linearGradient><linearGradient id="i"><stop offset="0" stop-color="#9dbcc9"/><stop offset="1" stop-color="#88abbc"/></linearGradient><linearGradient id="g"><stop offset="0" stop-color="#7a98a4"/><stop offset="1" stop-color="#50829b"/></linearGradient><linearGradient id="f"><stop offset="0" stop-color="#89abb8"/><stop offset="1" stop-color="#abc8d4"/></linearGradient><linearGradient id="r"><stop offset="0" stop-color="#999"/><stop offset="1" stop-color="gray"/></linearGradient><linearGradient id="a"><stop offset="0" stop-color="#7bf4f9"/><stop offset="1" stop-color="#38bbe9"/></linearGradient><linearGradient id="e"><stop offset="0" stop-color="#fff"/><stop offset="1" stop-color="#ccc"/></linearGradient><linearGradient id="s"><stop offset="0" stop-color="#ccc"/><stop offset="1" stop-color="#666"/></linearGradient><linearGradient xlink:href="#a" id="B" x1="344.619" y1="151.522" x2="348.056" y2="158.701" gradientUnits="userSpaceOnUse"/><linearGradient xlink:href="#e" id="H" x1="1810.688" y1="516.882" x2="1805.467" y2="516.97" gradientUnits="userSpaceOnUse"/><linearGradient xlink:href="#f" id="I" x1="359.147" y1="56.889" x2="369.674" y2="54.124" gradientUnits="userSpaceOnUse"/><linearGradient xlink:href="#g" id="J" x1="363.072" y1="50.823" x2="351.474" y2="52.161" gradientUnits="userSpaceOnUse"/><linearGradient xlink:href="#h" id="K" x1="314.264" y1="86.989" x2="319.459" y2="87.637" gradientUnits="userSpaceOnUse"/><linearGradient xlink:href="#i" id="L" x1="325.2" y1="73.459" x2="317.85" y2="71.421" gradientUnits="userSpaceOnUse"/><linearGradient xlink:href="#j" id="M" x1="311.37" y1="219.667" x2="312.19" y2="227.679" gradientUnits="userSpaceOnUse"/><linearGradient xlink:href="#k" id="N" x1="312.884" y1="218.216" x2="315.596" y2="229.382" gradientUnits="userSpaceOnUse"/><linearGradient xlink:href="#l" id="O" gradientUnits="userSpaceOnUse" x1="316.159" y1="231.75" x2="320.088" y2="212.975"/><linearGradient xlink:href="#m" id="P" gradientUnits="userSpaceOnUse" x1="316.247" y1="204.57" x2="317.834" y2="218.201"/><linearGradient xlink:href="#n" id="Q" x1="330.026" y1="217.366" x2="326.1" y2="227.715" gradientUnits="userSpaceOnUse"/><linearGradient xlink:href="#o" id="R" gradientUnits="userSpaceOnUse" x1="326.483" y1="230.331" x2="337.858" y2="219.556"/><linearGradient xlink:href="#p" id="S" x1="335.914" y1="205.589" x2="335.69" y2="220.88" gradientUnits="userSpaceOnUse"/><linearGradient xlink:href="#r" id="ae" gradientUnits="userSpaceOnUse" x1="191.345" y1="2.303" x2="188.955" y2="15.592"/><linearGradient xlink:href="#s" id="C" x1="337.804" y1="73.549" x2="343.805" y2="75.367" gradientUnits="userSpaceOnUse"/><linearGradient xlink:href="#t" id="E" x1="341.055" y1="67.584" x2="341.024" y2="78.898" gradientUnits="userSpaceOnUse" gradientTransform="translate(0 -.242)"/><linearGradient xlink:href="#u" id="X" x1="471.341" y1="94.95" x2="477.277" y2="88.782" gradientUnits="userSpaceOnUse"/><linearGradient xlink:href="#v" id="W" x1="468.763" y1="99.055" x2="476.442" y2="99.015" gradientUnits="userSpaceOnUse"/><linearGradient xlink:href="#w" id="ac" gradientUnits="userSpaceOnUse" x1="483.279" y1="627.627" x2="478.625" y2="633.502"/><linearGradient xlink:href="#x" id="Z" x1="1191.235" y1="329.148" x2="1182.908" y2="316.147" gradientUnits="userSpaceOnUse"/><linearGradient xlink:href="#y" id="ad" x1="519.281" y1="-115.542" x2="516.713" y2="-112.925" gradientUnits="userSpaceOnUse"/><linearGradient xlink:href="#z" id="aa" x1="335.462" y1="104.027" x2="335.684" y2="106.806" gradientUnits="userSpaceOnUse"/><linearGradient xlink:href="#z" id="ab" x1="478.259" y1="104.253" x2="478.652" y2="106.454" gradientUnits="userSpaceOnUse"/><linearGradient xlink:href="#A" id="Y" x1="479.522" y1="82.943" x2="479.48" y2="84.591" gradientUnits="userSpaceOnUse"/><radialGradient xlink:href="#b" id="F" cx="-445.413" cy="275.386" fx="-445.413" fy="275.386" r="11.255" gradientTransform="matrix(1.26518 1.04 .05442 1.83557 103.58 233.294)" gradientUnits="userSpaceOnUse"/><radialGradient xlink:href="#c" id="D" cx="347.055" cy="71.343" fx="347.055" fy="71.343" r="6.979" gradientTransform="matrix(1 -.02165 0 1.34787 0 -17.304)" gradientUnits="userSpaceOnUse"/><radialGradient xlink:href="#d" id="G" cx="304.751" cy="154.828" fx="304.751" fy="154.827" r="13.869" gradientTransform="matrix(1 0 0 .40789 0 91.676)" gradientUnits="userSpaceOnUse"/><radialGradient xlink:href="#q" id="T" cx="335.573" cy="206.337" fx="335.573" fy="206.337" r="7.211" gradientTransform="matrix(1 0 0 1.4692 -.15 -98.499)" gradientUnits="userSpaceOnUse"/><radialGradient xlink:href="#q" id="U" cx="326.959" cy="217.958" fx="326.959" fy="217.958" r="5.799" gradientTransform="matrix(1.28445 -.02117 .02308 1.3998 -97.898 -80.477)" gradientUnits="userSpaceOnUse"/><radialGradient xlink:href="#q" id="V" cx="310.989" cy="219.746" fx="310.989" fy="219.746" r="2.228" gradientTransform="matrix(1 0 0 3.33383 .19 -515.564)" gradientUnits="userSpaceOnUse"/></defs><g><g><rect transform="skewY(24.598) scale(.90925 1)" width="23.033" height="29.283" x="441.57" y="282.484" ry="1.51" rx="1.51" fill="#000" fill-opacity=".411"/><path d="M428.1 479.013l5.761 2.714.028 15.625c0 .836 9.462 3.7 9.505 4.537l.522 9.995c.043.837-.805 2.447-1.583 2.135l-14.232-5.723c-.777-.312-1.373-1.305-1.373-2.141v-26.26c0-.836.611-1.232 1.373-.882z" fill="#000" fill-opacity=".169"/><g transform="matrix(3.12053 1.42858 0 3.12053 -670.23 -485.737)"><path d="M342.82 149.727h5.831c.244 0 .44.216.44.485v8.415c0 .268-.428.905-.665.888l-5.605-.404a.49.49 0 01-.44-.484l-.335-8.145c-.01-.264.53-.755.775-.755z" fill="#fff"/><rect rx=".44" ry=".484" y="150.162" x="342.013" height="9.384" width="6.711" fill="url(#B)"/><path d="M346.812 155.023c-.19.124-2.191 1.41-2.44 1.596-.25.185-.433-.018-.433-.296v-3.06c0-.229.136-.36.332-.241.197.12 2.32 1.424 2.53 1.539.21.115.2.337.01.462z" fill="#17325f"/><path d="M344.19 153.145l2.466 1.49c.167.117-.006.427-.225.295l-2.312-1.395c-.102-.05-.094-.448.07-.39z" fill="#9ab8f1"/><path d="M351.295 149.718h5.83c.245 0 .441.216.441.484v8.415c0 .269-.429.906-.666.889l-5.605-.404a.49.49 0 01-.44-.485l-.334-8.145c-.01-.263.53-.754.774-.754z" fill="#fff"/><rect rx=".44" ry=".484" y="150.162" x="350.479" height="9.384" width="6.711" fill="#a4d5db"/><path d="M359.792 149.675h5.83c.245 0 .441.216.441.485v8.415c0 .268-.429.905-.666.888l-5.605-.404a.49.49 0 01-.44-.484l-.334-8.146c-.01-.263.53-.754.774-.754z" fill="#fff"/><rect rx=".44" ry=".484" y="150.162" x="358.946" height="9.384" width="6.711" fill="#c6e5ee"/><rect rx=".44" ry=".484" y="153.193" x="360.794" height="3.319" width="3.319" fill="#17325f"/><path d="M363.775 153.393c.199.016.21.37-.04.37h-2.542c-.258.005-.226-.37.01-.362.86 0 1.692-.008 2.572-.007z" fill="#9ab8f1"/><rect rx=".44" ry=".484" y="153.194" x="352.289" height="3.319" width="1.193" fill="#17325f"/><path d="M353.153 153.394c.199.016.21.37-.04.37h-.425c-.258.005-.226-.37.01-.362.86 0-.425-.008.455-.007z" fill="#9ab8f1"/><rect rx=".44" ry=".484" y="153.194" x="354.406" height="3.319" width="1.193" fill="#17325f"/><path d="M355.27 153.394c.199.016.21.37-.04.37h-.426c-.257.005-.225-.37.011-.362.86 0-.425-.008.455-.007z" fill="#9ab8f1"/></g></g><g><g stroke-width=".226"><path d="M626.513 185.104l2.507 1.622 2.654-1.479-2.064-67.965-48.064-21.524s-6.78-2.95-10.91 1.769c-4.127 4.716-3.834 6.635-3.834 6.635l39.513 78.877z" fill="#488aab"/><path d="M578.45 99l4.175.023 44.875 19.875 1.52 67.828-7.645-4.578z" fill="#305c72"/><path d="M625.484 119.493L578.449 99s-2.8.294-5.307 2.211c-2.507 1.918-1.473 7.52-1.473 7.52l40.84 19.02z" fill="#fff"/><path d="M340.08 83.666s-.455-2.703-2.276-2.28l.228-17.866s1.536-.514 2.73.936c1.195 1.45.797 1.65.797 1.65z" fill="url(#C)" transform="matrix(-3.6651 .27483 0 3.65665 1864.374 -205.402)"/><path d="M340.197 65.5l1.173-.65 12.665-6.72v19.03l-13.255 7.398-.704-.502z" fill="url(#D)" transform="matrix(-3.6651 .27483 0 3.65665 1864.374 -205.402)"/><path d="M573.375 110.993l41.238 18.892 2.606-2.086-49.662-23.175c.15 3.054 2.756 4.83 5.818 6.37z" fill="#cbf5f8"/><path d="M340.99 65.822l-.14 14.85" stroke="url(#E)" stroke-width=".273" transform="matrix(-3.6651 .27483 0 3.65665 1864.374 -205.402)"/></g><path d="M566.57 136.683l27.562 14.198.14 36.472-27.144-11.556z" fill="#000" fill-opacity=".14"/></g><g transform="matrix(-3.6651 .09514 0 3.65665 1985.549 -58.87)"><rect width="22.51" height="17.163" x="-455.954" y="255.208" transform="matrix(-.87897 .47688 0 1 0 0)" rx="0" ry="0" fill="#ececec"/><g transform="matrix(-.99719 .54102 0 1 13.597 174.813)" fill="#ac9393"><rect rx=".302" ry=".342" y="80.345" x="-384.568" height=".684" width="14.833"/><rect ry=".342" y="82.148" x="-384.568" height=".684" width="14.833" rx=".302"/><rect ry=".342" y="83.952" x="-384.568" height=".684" width="8.301" rx=".302"/><rect ry=".342" y="85.755" x="-384.568" height=".684" width="8.301" rx=".302"/><rect ry=".342" y="87.558" x="-384.568" height=".684" width="8.301" rx=".302"/></g><path overflow="visible" font-weight="400" style="line-height:normal;font-variant-ligatures:normal;font-variant-position:normal;font-variant-caps:normal;font-variant-numeric:normal;font-variant-alternates:normal;font-feature-settings:normal;text-indent:0;text-align:start;text-decoration-line:none;text-decoration-style:solid;text-decoration-color:#000;text-transform:none;text-orientation:mixed;shape-padding:0;isolation:auto;mix-blend-mode:normal" d="M387.341 56l-1.147.622v-.385l1.147-.622zm-2.294 1.244l-1.147.622v-.384l1.147-.623zm-1.973 1.172l-.021.086v1.017l-.384.209v-1.073l.008-.03.031-.12zm4.7-1.263l-.382.207v-1.15l.382-.207zm-4.721 4.667l-.384.208v-1.15l.384-.208zm4.72-2.368l-.38.207v-1.148l.38-.207zm-.928 1.235l-1.147.622v-.383l1.147-.622zm-2.294 1.244l-1.148.623v-.383l1.148-.622z" color="#000" font-family="sans-serif" fill="#000"/><path d="M400.881 38.778l-6.499 3.4-.215 8.619 6.607-3.725z" fill="#000" fill-opacity=".205"/><rect width="22.51" height="17.163" x="-455.954" y="255.208" transform="matrix(-.87897 .47688 0 1 0 0)" rx="0" ry="0" fill="url(#F)"/><rect width="8.871" height="8.667" x="-458.625" y="256.918" transform="matrix(-.87897 .47688 0 1 0 0)" rx="0" ry="0" fill="#109ef3"/></g><g><path d="M340.076 158.988c-16.456-5.19-51.574-3.695-45.705 17.152 2.505 7.238 23.298 26.774 43.621 20.371 20.324-6.403 51.531-19.178 51.531-19.178z" fill="#000" fill-opacity=".102"/><g><g><g stroke-width=".226"><path d="M378.905 167.883s-2.618 1.682-7.126-2.351c-4.516-4.032-11.744-10.953-31.705-6.54-10.753 1.527-24.859 10.025-31.365 12.592-2.46.971-1.8 4.028-1.8 6.245-.004 3.239 2.235 6.726 7.694 10.319 21.384 14.086 46.558 9.012 59.726 7.13 20.904-2.987 33.134-9.405 33.436-15.78.189-3.985.493-6.015-2.261-8.448-4.111-3.632-14.974-3.508-26.599-3.167z" fill="#6094ad"/><path d="M298.808 152.87s.724.389 1.93-.83c1.208-1.22 3.139-3.301 8.61-2.624 5.16.235 12.87 2.878 7.12 7.287-5.75 4.41-12.647 3.69-16.25 3.523-5.72-.263-9.094-1.691-9.214-3.423-.196-2.823 2.655-3.587 7.804-3.933z" fill="url(#G)" transform="matrix(-3.65828 .35403 .07908 3.65578 1459.959 -500.791)"/><path d="M329.313 165.37l-5.498.561s-5.44.71-4.065 2.889c1.374 2.182 6.845 2.95 6.845 2.95s5.794 1.937 8.199-2.83c2.404-4.776-5.485-3.573-5.485-3.573z" fill="#d40000"/><path d="M329.052 176.191c-1.93-1.095-10.501-1.445-11.426 3.59-.925 5.035 7.98 4.17 10.535 3.014 2.026-.914 5.69-3.87.891-6.604z" fill="#ff7f2a"/><path d="M346.687 180.181s-10.006 1.104-9.467 5.514c.535 4.418 12.554.764 12.554.764s4.83-1.582 4.336-3.93c-.49-2.348-4.636-2.995-7.423-2.348z" fill="#668000"/><path d="M375.276 179.268c-2.654-.706-7.652-.761-11.722 1.747-3.112 1.913-4.986 3.04-4.782 5.69.204 2.651 10.606 1.9 14.002.426 2.76-1.198 12.734-5.134 2.502-7.863z" fill="#fff"/><path d="M398.413 171.692c.038-1.623-2.095-4.674-8.039-3.366-5.94 1.308-5.976 3.67-5.784 5.286.196 1.615 3.919 3.896 8.916 3.05 4.996-.843 4.869-3.347 4.907-4.97z" fill="#475a6c"/><path d="M332.587 167.621c-.468-.32-.796-.545-1.341-.672-2.218-.504-2.97 1.712-1.384 2.464.467.222 1.2.759 1.783.552.807-.29 1.669-1.476.942-2.344z" fill="#fff"/><path d="M329.507 178.565c-.533-.56-1.072-.742-1.86-.882-2.197-.388-3.05 1.848-.98 2.49.598.185 1.502.441 2.216.248.653-.177 1.16-1.3.624-1.856z" fill="#fff"/><path d="M346.682 181.658c-1.746.268-2.752 1.747-2.057 2.148.826.39 5.42.96 6.006-.277.13-2.456-2.202-2.139-3.949-1.87z" fill="#fff"/></g><g transform="matrix(-3.37088 -1.46476 -1.704 3.23534 1759.586 188.575)"><ellipse ry="8.749" rx="1.714" transform="skewY(-4.298) scale(-.99719 1)" cy="167.3" cx="-343.152" fill="#0b5daf"/><path transform="matrix(-.22527 .01693 0 .2258 748.663 -11.784)" d="M1804.375 505.178c-.897.004-3.379 1.147-4.318 2.626-1.892 2.983-2.351 8.471-3.136 16.343-.112 3.256 4.754 3.845 7.633 3.889 2.88.044 7.765-1.555 7.369-4.956-.791-6.775-1.533-12.472-3.306-15.517-1.058-1.818-3.296-2.379-4.242-2.385z" fill="url(#H)"/><path d="M343.293 138.857s.218 2.033.103 3.716c-.114 1.684-.252 2.077-.518 1.82-.266-.257-.088-1.426-.088-2.414 0-.988-.06-3.16.071-3.48.181-.297.424-.02.432.358.008.377 0 0 0 0z" fill="#fff"/><path d="M343.193 128.22s-1.348.968-.423 1.967c.925 1 1.73 1.685-.1 3.153-1.81.438-2.555-1.26-2.434-2.116.12-.855.704-2.855 2.957-3.004z" fill="#5799ff"/></g></g></g></g><g><path d="M164.832 474.153v6.752l-44.23 25.536v-12.826l43.937-23.001z" fill="#627e8b"/><path d="M122.362 498.649v-15.503l45.172-26.081v15.502z" fill="#aac7d3"/><path d="M371.296 53.08l-1.673-4.63-14.291 8.252 1.488 4.735z" fill="url(#I)" transform="translate(-991.106 291.43) scale(3.12053)"/><path d="M355.339 56.723l-8.511-3.968 14.3-8.257 8.487 3.958z" fill="url(#J)" transform="translate(-991.106 291.43) scale(3.12053)"/><path d="M120.602 506.44l-33.028-14.744v-21.232l33.028 23.148z" fill="#34535f"/><g><path d="M122.362 498.03L85.78 480.975l.617-15.521 4.784-9.4 26.537 12.317 4.644 14.776z" fill="#4a6c7a"/></g><g transform="matrix(3.12053 .20003 0 2.6611 -1006.793 178.841)"><g transform="translate(-97.385 -48.847) scale(1.34818)"><path d="M334.288 95.788a5.132 3.24 61.176 00-1.262.635l-5.794 4.358 5.524 8.553 5.807-4.368a5.132 3.24 61.176 00.32-.241l.107-.08-.013-.02a5.132 3.24 61.176 00.785-2.32 5.132 3.24 61.176 00-3.765-6.192 5.132 3.24 61.176 00-1.709-.325z" fill="#325363"/><ellipse ry="4.416" rx="4.164" transform="skewY(25.251) scale(.90445 1)" cy="-50.509" cx="364.787" fill="#f60"/><path d="M334.28 95.774c-.494.063-.925.28-1.263.634l-.051.039c.266-.177.57-.29.9-.333.529-.066 1.114.045 1.708.325 2.08.981 3.766 3.754 3.766 6.193-.002.973-.278 1.789-.786 2.32.113-.07.22-.15.32-.241l.107-.08-.014-.02c.508-.531.785-1.347.786-2.32 0-2.439-1.685-5.212-3.765-6.193-.594-.28-1.18-.39-1.709-.324z" fill="#7799a7"/><path d="M331.993 97.533a2.08 2.08 0 00-1.262.635l-.052.038c.267-.177.57-.29.9-.332.53-.067 1.115.044 1.71.324 2.079.981 3.765 3.754 3.765 6.193-.002.973-.278 1.789-.786 2.32.113-.07.22-.15.32-.241l.107-.08-.014-.02c.508-.531.784-1.347.786-2.32 0-2.439-1.686-5.211-3.765-6.192-.594-.28-1.18-.392-1.709-.325z" fill="#7799a7"/><path d="M334.88 107.62s.757-1.485.196-3.323l1.619-1.213s.587 2.257-.57 3.525z" fill="#4e6f7d"/></g><g><path d="M340.2 97.807l-.295-.699.026-10.545.289-1.016s4.582-2.696 4.75-2.793c.168-.097.501 11.984.501 11.984z" fill="#5b7d8b"/><path d="M350.06 101.726l-9.748-3.582-.095-.371 5.04-3.758 9.67 4.725z" fill="#497383"/><path d="M343.367 86.38v9.092l9.156 4.179-.216-10.988z" fill="#2e455c"/><g transform="translate(58.604 .673) scale(.87558)" fill="#070707"><ellipse ry="4.416" rx="4.164" transform="skewY(25.251) scale(.90445 1)" cy="-50.509" cx="364.787"/></g><path d="M350.318 102.244l.016-10.86s4.295-3.314 4.463-3.41c.143-.084.19 10.76.19 10.76l-.174.28-.184.382z" fill="#97b9c9"/><path d="M349.64 89.495l.74 1.903 4.458-3.368-.7-1.147z" fill="#88abbb"/><path d="M319.23 89.774l-7.4-3.45 3.318-2.434 7.407 3.524z" fill="url(#K)" transform="translate(-65.33 -26.749) scale(1.30049)"/><path d="M340.182 85.483l9.684 4.5.51 1.382-.026 10.364-.356.918-1.036-1.745.104-9.447-7.648-3.584z" fill="#4a6c7b"/><path d="M341.394 87.805l.047 9.08 7.537 3.59 1.045 2.181-9.72-4.5-.398-1.083.026-10.51.27-1.059z" fill="#355766"/><path d="M350.338 101.729l4.656-3.033-.318.69-4.71 3.265z" fill="#3e5c6d"/></g><rect width="11.174" height="4.211" x="454.839" y="360.07" transform="skewY(-36.95) scale(.79916 1)" ry="0" fill="#83a2ad"/><path d="M364.15 87.103l2.269-1.706v2.438l-2.268 1.706z" fill="#abc5d1"/><path d="M369.443 83.122l2.268-1.706v2.438l-2.268 1.706z" fill="#abc5d1"/><path d="M367.328 84.74l1.264-.95v2.355l-1.264.95z" fill="#abc5d1"/><path d="M367.529 84.798l.886-.667v.859l-.886.667z" fill="#668490"/></g><g stroke-width=".265"><path d="M63.184 429.105l17.987-5.308s5.086.293 6.194 5.011c.146 3.539-1.033 5.898-2.51 7.667-1.472 1.77-18.28 5.455-18.28 5.455z" fill="#86b9cd"/><path d="M68.645 444.845s1.885-.656 2.243-1.323c.862-1.61 2.253-4.806 1.732-7.93-.736-4.425-5.601-9.436-7.224-9.436-1.622 0-22.411 5.748-22.411 5.748s-11.056 3.392-9.58 12.238c1.472 8.847 16.07 6.488 16.07 6.488z" fill="#2e455c"/><path d="M86.569 448.714l-8.956-3.773s-2.04-1.694-2.144-6.122c-.106-4.431 2.687-6.335 2.687-6.335l8.993 3.096s2.743 1.498 2.372 6.728c-.371 5.23-2.952 6.406-2.952 6.406z" fill="#3a6b88"/><path d="M86.463 448.82l16.358-6.063-1.517-12.779-14.155 5.602s2.434 1.938 2.294 6.787c-.137 4.812-2.977 6.453-2.977 6.453z" fill="#9bbac8"/><path d="M78.156 432.484l8.993 3.096 14.155-5.602-7.96-2.065z" fill="#50839c"/></g><g stroke-width=".265"><path d="M98.898 446.548l5.942 10.53 8.862 2.814-5.161-10.267z" fill="#3d708b"/><path d="M113.702 459.892l9.174-4.9-10.737-7.61-5.58 1.616z" fill="#76acc4"/></g><g stroke-width=".265"><path d="M125.345 424.418l-11.26-1.773-18.142 6.569 9.468 2.955z" fill="#4a7082"/><path d="M133.162 447.457l-6.528-2.946s.667-1.398.586-2.475c-.23-3.027-.209-5.211-3.65-8.341-3.44-3.127-10.32-3.439-10.32-3.439l9.695-2.815 13.24 9.175s1.982 6.565 1.982 6.984c0 .418-5.005 3.856-5.005 3.856z" fill="#5e7d8b"/><path d="M316.982 72.857s2.44-1.23 3.073-1.336c1.317-.223 2.673.434 3.642 1.67.969 1.236.953 1.752.935 2.706-.007.37-.4 1.036-.4 1.036l2.84-1.403s0-1.537-.535-2.238c-.535-.702-4.811-3.742-4.811-3.742s-.635-.167-1.303.133c-.668.301-5.215 2.316-5.215 2.316z" fill="url(#L)" transform="translate(-878.61 207.385) scale(3.12053)"/></g><g stroke-width=".265"><path d="M95.946 429.214l2.057-.883 23.148 10.54-.297 16.733-1.47 1.174-22.268-15.547z" fill="#90b1be"/><path d="M119.385 456.778l-23.439-10.932v-16.632l23.55 10.766z" fill="#325363"/></g><g stroke-width=".265"><path d="M132.335 405.66s-2.085-2.293.73-5.63c1.248-.832 15.322 2.4 15.322 2.4l10.429 8.966s.103 3.75-1.982 5.523c-2.085 1.772-11.57 2.088-24.5-11.259z" fill="#7396a6"/><path d="M120.349 418.65l7.074 2.597 5.14 8.716-9.418-4.344z" fill="#4b6d7d"/><path d="M120.42 418.872l11.618-14.242 8.863 1.979-13.625 14.935z" fill="#4b83a0"/><path d="M132.563 429.963l-5.212-8.788 13.55-14.566 8.238 10.425z" fill="#91b9ca"/></g><path d="M162.092 449.566l-1.189-3.589-10.163 6.397 1.06 3.673z" fill="#c5dce8"/><path d="M108.026 500.168s3.183-5.12.82-11.867l6.813-3.913s2.468 8.254-2.397 12.495z" fill="#4e6f7d"/></g><g transform="translate(-215.084 -113.014) scale(3.12053)"><path d="M314.334 213.604s-1.467.602-2.526 1.856c-1.06 1.253-1.499 2.275-1.7 4.48-.2 2.205.208 6.644 1.544 8.315 1.337 1.67 4.71 1.97 4.71 1.97s2.538.332 4.06-1.237c1.52-1.569.282-11.804.282-11.804-.25-1.059-.237-1.479-2.197-2.41z" fill="url(#M)"/><path d="M316.599 214.332s-5.041 2.141-4.283 8.833c.759 6.69 4.64 7.092 4.64 7.092s3.033.313 3.479-1.07c.446-1.383.669-4.684.669-4.684l-2.186-7.36z" fill="url(#N)"/><path d="M315.728 215.615c-1.282 1.563-2.014 2.888-2.211 5.131-.198 2.243.536 7.945 3.252 8.614 1.041.311 2.227.213 3.184-.305.725-.524 1.184-1.38 1.305-2.258.072-3.197-.21-7.423-.554-9.613-.921-2.032-2.274-1.976-4.976-1.57z" fill="url(#O)"/><path d="M315.728 215.615l2.807.116c-.994-9.423 1.766-12.21 4.705-13.68 1.386-.692 4.568-1.483 5.552-1.464-1.305-.446-2.874-.14-4.867.071-7.72 1.222-8.826 9.186-8.197 14.957z" fill="url(#P)"/><path d="M315.657 214.313s-1.392-11.546 7.678-13.608c3.118-.708 6.449-.33 6.449-.33s-4.158-1.323-8.694.141c-3.401 1.323-6.85 5.387-6.756 13.088z" fill="#6293aa"/><path d="M335.172 215.426s-5.279-1.637-8.052 2.071c-2.773 3.708-3.641 6.715-3.307 10.09.334 3.374 1.765 4.192 2.979 4.799 1.214.607 3.553 1.234 6.206-.35 2.511-1.444 5.515-8.392 5.715-11.666.2-3.274-3.541-4.944-3.541-4.944z" fill="url(#Q)"/><path d="M335.84 217.03s-1.537-1.671-4.51 1.37c-2.973 3.04-5.813 8.385-4.544 11.124 1.27 2.74 3.174 2.706 4.31 2.606 1.136-.1 3.625-1.624 5.446-5.947 1.603-3.808 2.84-6.815-.702-9.154z" fill="url(#R)"/><path d="M325.193 200.358c.136-.05 1.546-.026 1.98.058 2.712.524 10.025 4.036 6.485 15.078-2.835 7.843-6.284 12.331-1.89 13.796 3.355.803 4.769-4.898 4.769-4.898s.806-2.19-.847-3.512c0 0 3.875-11.41.708-15.828-3.167-4.418-6.599-4.675-6.614-4.677-.86-.216-1.309-.353-2.415-.449z" fill="url(#S)"/><path d="M326.573 200.341a.853.853 0 00-.29.031h.627a3.122 3.122 0 00-.337-.03zm.337.031c2.46.336 10.405 3.698 6.744 15.12-2.835 7.842-6.284 12.33-1.89 13.795.826.198 1.533 0 2.131-.408-1.202.301-3.068.406-3.311-1.755-.384-3.424 2.583-7.44 4.137-12.884 2.42-9.415-4.2-13.172-7.131-13.868z" fill="#2d5466"/><path d="M316.404 224.327c-.525-1.053-.497-2.28-.32-3.415.138-.968 1.214-3.134 2.261-2.196 1.683 1.658 1.77 4.319 1.042 6.378-.476-1.647-.073-3.85-1.616-4.27-1.283.337-1.124 2.535-1.367 3.503z" fill="#082a41"/><path d="M323.406 200.21c.226.268 8.741-1.482 12.615 4.489 3.988 6.147-.92 16.3-.472 16.395" stroke="url(#T)" stroke-width=".265"/><ellipse transform="rotate(12.602)" ry=".995" rx=".849" cy="144.875" cx="374.833" fill="#21485d"/><ellipse transform="rotate(12.602)" ry=".995" rx=".849" cy="144.875" cx="374.555" fill="#41758e"/><ellipse transform="rotate(12.602)" ry=".995" rx=".849" cy="147.989" cx="374.678" fill="#21485d"/><ellipse transform="rotate(12.602)" ry=".995" rx=".849" cy="147.989" cx="374.4" fill="#41758e"/><path d="M335.306 215.47s-5.279-1.637-8.052 2.072c-2.773 3.708-3.641 6.715-3.307 10.089" stroke="url(#U)" stroke-width=".265"/><path d="M314.523 213.604s-1.467.602-2.526 1.856c-1.06 1.253-1.498 2.275-1.699 4.48-.2 2.205.207 6.644 1.543 8.315" stroke="url(#V)" stroke-width=".265"/></g><g transform="matrix(-2.71855 0 0 3.18055 1745.674 294.01)"><g transform="matrix(-1.14787 0 0 .98113 1031.71 8.705)" stroke-width=".265"><path d="M474.403 103.66l12.428-7.283V85.753l-15.3 5.312z" fill="#446371"/><path d="M468.192 92.743l-.671 9.881s2.773 4.21 5.145 3.776c2.372-.435 3.942-3.074 3.942-3.074l.034-8.987-2.907-2.74z" fill="url(#W)"/><path d="M474.303 87.123l-7.065 3.424c-.537.275-.53.57-.544.864l4.001 4.365s1.57 2.271 3.007 1.703c1.436-.567 1.503-2.305 1.503-2.305l-1.002-2.94 5.558-2.891-1.302-.955z" fill="url(#X)"/><path d="M466.697 91.275l-.011 10.648 1.67 1.537V92.802l-1.53-1.898c-.114.102-.102.243-.13.371z" fill="#4e84a0"/><path d="M477.343 101.689l1.528.764c.129.043.257.085.414.063l.75-8.977 1.636-3.48-2.59-.865-1.453 2.392c-.17.33-.52 1.127-.471 2.305z" fill="#557d8d"/><path d="M489.888 86.04l-.15 9.669-5.446 1.27 2.306-10.825z" fill="#4e7d92"/><path d="M479.194 102.516c.092-.006.132.025.346-.068l9.263-5.403-.468-8.018-2.138-1.27-4.849 2.322-1.351 2.11c-.205.381-.542 1.23-.656 2.782z" fill="#446371"/><path d="M482.455 85.218l2.294-1.07c.428-.322.955-.127 1.487.1l2.777 1.12s.662.274.725.352c.282.347.167 1.036-.434 1.269-.602.234-2.673-.2-2.673-.2z" fill="#7bc3d8"/><path d="M475.1 84.596l3.226-1.594c0-.005.918-.488 2.362-.138 0 0 1.406.425 2.201.818 1.014.5 2.807 1.904 2.807 1.904l-4.778 3.174z" fill="#66acc6"/><path d="M474.27 87.123l.502-2.014c-.02 0 .166-.626.548-.542.908.199 2.921.816 3.961 1.386.938.514 2.506 2.005 2.506 2.005l.167 2.172-2.935-.515s-.852-.713-1.288-.992c-1.094-.7-3.461-1.5-3.461-1.5z" fill="#648f9e"/><path d="M481.753 87.925l3.943-2.339.127 2.298-3.869 2.212z" fill="#53788a"/><ellipse ry="1.37" rx="1.205" cy="94.934" cx="472.694" fill="#446371"/><path d="M469.54 90.525l4.773-2.504 2.173 1.229-5.008 2.645z" fill="#475a6c"/><path d="M469.54 90.525l4.773-2.504 2.173 1.229" stroke="#000" stroke-width=".32"/><path d="M476.005 84.305l2.57-1.249c.803-.271 1.74-.156 2.464.053 1.274.316 2.235.956 3.078 1.506l.756-.374c.297-.2.796-.082 1.306.144l2.094.861" stroke="url(#Y)" stroke-width=".32"/><path d="M481.68 87.454l.274 2.676" stroke="#66acc6" stroke-width=".32"/></g><path d="M1182.457 306.518a17.933 11.296 51.562 00-4.771 1.74l-21.9 12.642 20.88 28.905 21.947-12.67a17.933 11.296 51.562 001.211-.7l.403-.232-.051-.066a17.933 11.296 51.562 002.97-7.287 17.933 11.296 51.562 00-14.232-20.871 17.933 11.296 51.562 00-6.457-1.461z" transform="translate(51.277 -12.756) scale(.3567)" fill="url(#Z)"/><ellipse cx="364.787" cy="-50.509" transform="matrix(1.21935 .5686 0 1.14969 22.38 -42.438)" rx="4.164" ry="4.416" fill="#446371"/><path d="M473.05 96.558c-.666.03-1.247.242-1.703.62l-.069.04c.359-.18.769-.284 1.213-.305.714-.03 1.502.148 2.303.52 2.804 1.308 5.077 4.642 5.077 7.446-.002 1.119-.374 2.033-1.06 2.6.153-.071.297-.154.432-.25l.144-.082-.018-.025c.684-.566 1.058-1.48 1.06-2.599 0-2.804-2.272-6.138-5.077-7.445-.8-.374-1.59-.55-2.304-.52z" fill="#83adbc"/><path d="M469.966 98.382c-.664.031-1.245.242-1.701.621l-.07.04c.36-.181.768-.285 1.213-.304.715-.032 1.503.146 2.306.52 2.802 1.307 5.075 4.641 5.075 7.445-.002 1.119-.374 2.033-1.06 2.6.153-.071.297-.154.432-.25l.144-.083-.018-.024c.684-.566 1.057-1.48 1.06-2.6 0-2.803-2.274-6.136-5.077-7.443-.8-.374-1.59-.553-2.304-.522z" fill="#83adbc"/><path transform="matrix(1.34818 .08641 0 1.14969 22.38 -42.438)" d="M333.757 108.303s.6-1.388.039-3.226l2.899-1.993s.587 2.257-.57 3.525z" fill="url(#aa)"/><ellipse cx="364.798" cy="-50.392" transform="matrix(1.21935 .5686 0 1.14969 22.38 -42.438)" rx="3.182" ry="3.374" fill="#241f1c"/><path d="M477.018 108.432s1.019-1.641.263-3.803l2.182-1.254s.791 2.645-.768 4.004z" fill="url(#ab)"/><path d="M475.984 644.244s8.328-8.905 8.329-14.285c0-3.666-1.758-6.062-4.551-6.201-1.145-.055-2.408.273-3.692.959 6.205 2.385 1.218 19.95-.086 19.527z" transform="matrix(-.36784 0 0 .31441 642.134 -92.44)" fill="url(#ac)"/><path transform="skewY(25) scale(.9063 1)" d="M513.141-115.557c2.16-.9 4.71-.466 6.363 1.08 1.654 1.547 2.05 3.871.99 5.799" stroke="url(#ad)" stroke-width=".303"/></g><g><g><g><path d="M833.284 163.277l1.243 66.44c18.606 14.742 21.008 23.785 27.174 48.769l5.432-51.214-11.223-32.406c-11.612-17.74-10.04-17.905-22.624-31.586z" fill="#ececec"/><path d="M180.319 10.602S167.64-3.152 165.996-10.857l33.239 13.44s3.014 13.181 12.743 16.296c9.728 3.114 20.485 2.21 23.773 1.55 3.289-.66 9.352-1.836 9.352-1.836 3.374-.115-22.175 6.95-36.892 1.846-14.08-4.883-27.892-9.837-27.892-9.837z" fill="url(#ae)" transform="matrix(-.77385 -1.64738 1.57682 -.89032 994.122 583.851)"/><path d="M863.996 239.146l-13.612 17.678 2.122 59.043 10.96-15.556 2.651-50.028z" fill="#727272"/><path d="M854.582 192.396s13.345 30.566 9.113 45.418c-3.461 12.147-8.92 18.649-8.92 18.649l1.106 64.527c.236.128 11.118-9.79 16.063-37.568 2.116-11.889-.07-34.198-2.34-47.86-4.324-26.03-14.589-43.383-15.022-43.169z" fill="#b3b3b3"/><path d="M225.474 22.1s-18.281-.508-24.26-6.126c-4.89-4.595-6.531-8.862-6.531-8.862l-31.258-14.64" stroke="#fff" stroke-width=".308" transform="matrix(-.77385 -1.64738 1.57682 -.89032 994.122 583.851)"/><path d="M165.996-10.856l33.239 13.44s3.014 13.18 12.743 16.295c9.728 3.114 20.485 2.21 23.773 1.55 3.289-.66 9.352-1.836 9.352-1.836" stroke="#fff" stroke-width=".543" transform="matrix(-.77385 -1.64738 1.57682 -.89032 994.122 583.851)"/></g></g></g><g><path d="M616.25 552.338l-38.675 22.068c-1.154.658-2.083.26-2.083-.891V562.7c0-1.152.93-2.61 2.083-3.268l38.55-21.997" fill="#000" fill-opacity=".136"/><path d="M584.761 565.982l63.277-36.106c1.155-.658 2.91.258 3.42 1.057l.487 1.59-1.823 9.058c-.228 1.13-.93 2.61-2.084 3.268l-61.957 35.353-.193 1.88c-.135 1.322-3.21-.866-3.21-2.018V569.25c0-1.152.93-2.61 2.083-3.268z" fill="#f2f2f2"/><rect transform="matrix(.86855 -.4956 0 1 0 0)" rx="2.398" ry="2.08" y="901.919" x="672.967" height="14.973" width="77.65" fill="#bfbfbf"/><g><path d="M611.972 563.782l-22.732 12.97c-.415.237-1.045-.092-1.229-.38l-.174-.57.655-3.255c.081-.405.333-.937.748-1.174l22.258-12.7.069-.675c.049-.475 1.153.31 1.153.725v3.884c0 .414-.334.938-.748 1.175z" fill="#dfdfdf"/><rect width="27.895" height="5.379" x="-704.716" y="-912.079" ry=".747" rx=".862" transform="matrix(-.86855 .4956 0 -1 0 0)" fill="#adadad"/></g><g transform="rotate(90 989.231 356.261) scale(4.8936)" fill="#e3dedb"><path d="M242.205 142.536l-.042.69c0 .32-.163.628-.502.87-.803.574-2.285.56-3.311-.033-.605-.349-.916-.82-.905-1.266.007-.31.313-1.071.313-1.071z" fill="#fff"/><ellipse transform="matrix(.81356 -.58148 .86606 .49995 0 0)" ry="2.145" rx="1.787" cy="280.569" cx="-3.686" fill="#d2d2d2"/></g></g></g></svg>