<?xml version="1.0" encoding="UTF-8" standalone="no"?><svg xmlns="http://www.w3.org/2000/svg" xmlns:xlink="http://www.w3.org/1999/xlink" fill="none" height="694.523" width="1091.393"><defs><linearGradient id="m"><stop offset="0" stop-color="#37becb"/><stop offset="1" stop-color="#70ebf6"/></linearGradient><linearGradient id="l"><stop offset="0" stop-color="#70ebf6"/><stop offset="1" stop-color="#0194a2"/></linearGradient><linearGradient id="k"><stop offset="0" stop-color="#fff"/><stop offset="1" stop-color="#fff" stop-opacity="0"/></linearGradient><linearGradient id="j"><stop offset="0" stop-color="#c7d6dc"/><stop offset="1" stop-color="#c7d6dc" stop-opacity="0"/></linearGradient><linearGradient id="h"><stop stop-color="#fff" offset="0"/><stop stop-color="#b9afaf" offset="1"/></linearGradient><linearGradient id="b"><stop stop-color="#8cd8e0" offset="0"/><stop stop-color="#c1d3d5" offset="1"/></linearGradient><linearGradient id="a"><stop stop-color="#59ffff" offset="0"/><stop stop-color="#fff" offset="1"/></linearGradient><linearGradient id="c"><stop stop-color="#758b9a" offset="0"/><stop stop-color="#5b7287" offset="1"/></linearGradient><linearGradient id="d"><stop stop-color="#748a9a" offset="0"/><stop stop-color="#5d7489" offset="1"/></linearGradient><linearGradient id="f"><stop stop-color="#fff" offset="0"/><stop stop-color="#ccc" offset="1"/></linearGradient><linearGradient id="e"><stop stop-color="#ccc" offset="0"/><stop stop-color="#666" offset="1"/></linearGradient><linearGradient id="g"><stop stop-color="#666" offset="0"/><stop offset="1"/></linearGradient><linearGradient gradientUnits="userSpaceOnUse" y2="2236" x2="1084" y1="2200" x1="1084" id="i"><stop stop-color="#70EBF6"/><stop stop-color="#0287E9" offset="1"/></linearGradient><linearGradient gradientUnits="userSpaceOnUse" y2="89.255" x2="335.88" y1="85.722" x1="341.306" id="o" xlink:href="#a"/><linearGradient gradientUnits="userSpaceOnUse" y2="104.648" x2="347.362" y1="94.302" x1="334.24" id="p" xlink:href="#b"/><linearGradient gradientUnits="userSpaceOnUse" y2="184.785" x2="312.874" y1="162.067" x1="261.651" id="q" xlink:href="#c"/><linearGradient gradientUnits="userSpaceOnUse" y2="190.681" x2="307.306" y1="168.632" x1="260.254" id="r" xlink:href="#d"/><linearGradient y2="149.063" x2="274.094" y1="154.315" x1="262.121" gradientUnits="userSpaceOnUse" id="s" xlink:href="#e"/><linearGradient y2="147.465" x2="273.501" y1="153.293" x1="262.05" gradientUnits="userSpaceOnUse" id="t" xlink:href="#f"/><linearGradient y2="147.65" x2="272.023" y1="153.67" x1="260.701" gradientUnits="userSpaceOnUse" id="v" xlink:href="#g"/><linearGradient gradientUnits="userSpaceOnUse" y2="99.318" x2="337.379" y1="109.801" x1="342.154" id="D" xlink:href="#h"/><linearGradient gradientUnits="userSpaceOnUse" y2="93.547" x2="337.495" y1="98.267" x1="332.599" id="E" xlink:href="#i"/><linearGradient y2="173.847" x2="276.011" y1="169.838" x1="284.169" gradientUnits="userSpaceOnUse" id="F" xlink:href="#f"/><linearGradient gradientTransform="rotate(179.253 267.54 146.33)" gradientUnits="userSpaceOnUse" y2="141.542" x2="277.332" y1="139.391" x1="276.525" id="z" xlink:href="#j"/><linearGradient gradientTransform="rotate(179.253 282.43 145.764)" gradientUnits="userSpaceOnUse" y2="142.333" x2="276.54" y1="139.391" x1="276.525" id="A" xlink:href="#j"/><linearGradient gradientUnits="userSpaceOnUse" y2="197.716" x2="396.344" y1="197.716" x1="390.6" id="C" xlink:href="#l"/><linearGradient gradientUnits="userSpaceOnUse" y2="62.272" x2="-405.386" y1="62.272" x1="-412.039" id="B" xlink:href="#m"/><radialGradient gradientUnits="userSpaceOnUse" gradientTransform="matrix(1.25382 -.00444 .00314 .88736 -160.507 33.293)" r="53.795" fy="284.645" fx="655.932" cy="284.645" cx="655.932" id="n" xlink:href="#k"/></defs><g><g><path d="M288.403 428.992l61.718 28.307v56.713l-61.718-28.308z" fill="#000" fill-opacity=".227"/><g transform="matrix(3.12053 1.44686 0 3.12053 -584.57 -298.533)"><rect width="34.478" height="25.057" x="262.592" y="94.547" ry="0" rx="0" fill="#c6e5ee"/><path d="M262.427 94.334h34.796v3.728h-34.796z" fill="#469bc6"/><circle r=".78" cx="292.208" cy="96.319" fill="#164390"/><circle cx="294.854" cy="96.319" r=".78" fill="#164390"/><path d="M264.238 100.122h21.734v9.213h-21.734z" fill="#488aab"/><path d="M287.295 100.122h7.796v9.26h-7.796z" fill="#73c1d8"/><path d="M264.332 110.564h30.852v7.04h-30.852z" fill="#80c7dc"/><path d="M264.497 105.104h.6l.335-1.537.434 3.307.401-4.41.435 5.713.5-5.345.402 2.339.267-1.27.3 2.405.301-1.37h.735l.234-2.07.334 4.543.501-5.145.435 4.51.467-3.34.334 1.436h1.237l.367-2.138.668 4.777.702-5.479.701 5.212.334-4.31.502 2.005h.701l.2-1.67.468 3.741.334-4.143.401 3.208.301-1.337h.802l.3-.935.435 1.904.367-1.704.301.735h.902l.3-1.77.402 4.176.668-5.078.701 4.643.401-3.608.568 1.737h1.203" stroke="#73c1d8" stroke-width=".265"/><path d="M262.427 94.379l34.726.01" stroke="#bee5dc" stroke-width=".265"/></g><path d="M234.515 431.823l38.782 17.788v23.239l-38.782-17.788z" fill="#000" fill-opacity=".227"/><g transform="matrix(3.12053 1.43126 0 3.12053 -719.237 -404.603)"><path d="M295.734 129.852h19.778v18.174h-19.778z" fill="#ececec"/><path d="M295.734 132.458h19.775" stroke="#53619d" stroke-width=".397"/><rect rx=".496" width="4.725" height=".992" x="303.061" y="145.602" ry=".496" fill="#53619d"/><rect rx=".496" width="4.725" height=".992" x="308.882" y="145.602" ry=".496" fill="#53619d"/><path d="M297.197 139.502h1.186l.712-3.641 1.186 8.385.83-8.452.95 7.25 1.028-3.876h2.294l.554-2.171 1.423 5.813.791-6.883 1.582 5.647.989-2.707h2.808" stroke="#53619d" stroke-width=".397"/></g></g><path d="M642.438 192.919l56.934 24.915-.137 23.528-55.96-26.59z" fill="#000" fill-opacity=".237"/><g><g><g><rect width="118.592" height="78.191" x="687.675" y="-99.456" ry="0" rx="0" transform="skewY(24.875) scale(.90723 1)" fill="#c6e5ee"/><path d="M623.362 188.905l108.582 50.344v11.634l-108.582-50.345z" fill="#469bc6"/><ellipse cx="789.543" cy="-93.926" transform="skewY(24.875) scale(.90723 1)" rx="2.683" ry="2.434" fill="#164390"/><ellipse cx="798.644" cy="-93.926" transform="skewY(24.875) scale(.90723 1)" rx="2.683" ry="2.434" fill="#164390"/><path d="M661.43 224.295l24.327 11.28v28.896l-24.327-11.28z" fill="#73c1d8"/><path d="M629.307 242.307l56.744 26.31v23.316l-56.744-26.31z" fill="#80c7dc"/><path d="M623.362 189.045l108.364 50.275" stroke="#bee5dc" stroke-width=".827"/><path d="M731.467 317.884l-107.59-49.885.145-64.738 100.586 48.26z" fill="url(#n)"/></g><g aria-label="A" style="line-height:1.25" font-weight="400" font-size="40" letter-spacing="0" word-spacing="0" font-family="sans-serif" fill="#000"><path d="M645.214 235.734l-7.106-3.313-.845 1.564q-.416.785-.416 1.423 0 .846.683 1.564.4.424 1.973 1.276v.55l-6.69-3.12v-.55q1.082.342 1.78-.06.697-.416 1.72-2.238l7.195-12.696.282.132 7.254 19.878q1.038 2.828 1.706 3.747.504.695 1.424 1.199v.548l-9.732-4.537v-.55l.401.188q1.172.546 1.647.441.326-.085.326-.53 0-.267-.089-.59-.03-.148-.445-1.32zm-.504-1.333l-2.997-8.324-3.086 5.488z" style="-inkscape-font-specification:'Times New Roman, Bold'" font-weight="700" font-family="Times New Roman" fill="#164390"/><path transform="matrix(.9063 .42261 0 1 -807.479 -141.178)" d="M1586.474-317.6h28.93v26.643h-28.93z" fill="none" stroke="#000" stroke-width=".799" stroke-dasharray="3.19624331,3.19624331"/></g></g><g transform="matrix(1.05057 .50659 0 1 -1077.401 -222.321)" fill="#73c1d8" stroke-width=".655"><rect rx="1.24" width="34.129" height="2.502" x="1682.025" y="-392.78" ry="1.251"/><rect rx="1.24" width="34.129" height="2.502" x="1682.025" y="-386.186" ry="1.251"/><rect rx="1.24" width="34.129" height="2.502" x="1682.025" y="-379.592" ry="1.251"/><rect rx="1.24" width="34.129" height="2.502" x="1681.712" y="-372.592" ry="1.251"/><rect rx="1.24" width="34.129" height="2.502" x="1681.712" y="-365.998" ry="1.251"/><rect rx="1.24" width="34.129" height="2.502" x="1681.712" y="-359.404" ry="1.251"/><rect rx="1.24" width="34.129" height="2.502" x="1681.712" y="-352.825" ry="1.251"/><rect rx="1.24" width="34.129" height="2.502" x="1681.712" y="-346.231" ry="1.251"/><rect rx="1.24" width="34.129" height="2.502" x="1681.712" y="-339.637" ry="1.251"/></g></g><g><path d="M332.764 84.564c3.81-5.219 7.259-5.93 10.691-6.43v13.221c-3.612-.307-7.224 3.631-10.836 7.658z" fill="url(#o)" transform="translate(-670.526 19.322) scale(3.12053)"/><path d="M332.69 84.587c2.974 6.68 6.9 9.308 14.245 10.802l.102 12.464c-8.027-1.273-12.143-4.5-14.347-8.759z" fill="url(#p)" transform="translate(-670.526 19.322) scale(3.12053)"/><path d="M400.418 321.517l-15.29-.67v11.514a6.7 6.7 0 00-1.888-.836c-2.194-.58-3.97.193-3.973 1.725 0 1.533 1.779 3.246 3.973 3.83 2.193.58 3.972-.194 3.972-1.726a2.09 2.09 0 00-.078-.553v-9.57l11.218.374v7.711a6.7 6.7 0 00-1.888-.836c-2.193-.58-3.972.193-3.969 1.725 0 1.536 1.779 3.246 3.97 3.83 2.193.58 3.972-.194 3.972-1.726a2.181 2.181 0 00-.078-.553c-.125-4.809.075-9.624.06-14.239z" fill="#fff"/><path d="M401.192 263.357c.278-.1-30.45 6.21-32.943 21.057 12.862 29.754 43.609 32.135 43.578 33.57v-.417" stroke="#fff" stroke-width=".827"/></g><g transform="translate(-650.335 43.625) scale(3.12053)"><path d="M314.878 184.192v3.67l-56.701-26.232c-.908-.363-.654-.849-.668-1.292v-2.684z" fill="url(#q)"/><path d="M314.89 184.32v1.402l-57.37-26.533.142-1.076z" fill="#475a6c"/><g><path d="M328.439 176.918l-58.144-26.91.735-1.738 6.014-3.274 57.409 26.677-5.546 3.307z" fill="#475a6c"/><path d="M255.71 169.876l5.88-3.274 57.743 26.576-5.746 3.408z" fill="url(#r)" transform="translate(15.32 -21.606)"/><path d="M322.024 168.87l8.74 4.064 1.395-.874-8.836-4.016z" fill="#475a6c"/><path d="M319.437 167.63l1.796.827 1.393-.874-1.724-.803z" stroke="#94b2bd" stroke-width=".265"/><path d="M283.673 151.589l2.397 1.094 1.393-.874-2.326-1.07z" stroke="#a1b4bc" stroke-width=".265"/><path d="M287.314 153.226l2.397 1.094 1.394-.874-2.326-1.07z" stroke="#a1b4bc" stroke-width=".265"/><path d="M277.237 147.818a.59.751 68.323 01-.913-.275.59.751 68.323 01.486-.824.59.751 68.323 01.913.276.59.751 68.323 01-.486.823z" fill="#94b2bd"/><path d="M279.997 149.748a1.013 1.58 76.127 01-1.685-.696 1.013 1.58 76.127 011.408-1.318 1.013 1.58 76.127 011.685.696 1.013 1.58 76.127 01-1.408 1.318z" fill="#677d90" stroke="#475a6c" stroke-width=".256"/><path d="M271.03 148.27l57.846 26.684" stroke="#a0b2bb" stroke-width=".265"/></g><g id="u" stroke-width=".265"><path d="M259.39 153.54a.521.521 0 00-.263.409l.003.116c.004.1.084.182.161.234l3.532 1.678c.381.12.435.097.74-.055l13.144-7.611-.009-.637z" fill="url(#s)" transform="translate(-2.105 3.976)"/><path d="M262.727 155.362l-3.092-1.402c-.108-.07-.505-.317-.03-.586l12.983-7.448 4.11 1.748-13.245 7.664c-.247.154-.547.112-.726.024z" fill="url(#t)" transform="translate(-2.105 3.976)"/></g><use height="100%" width="100%" transform="translate(4.468 1.997)" xlink:href="#u"/><use height="100%" width="100%" transform="translate(8.928 4.06)" xlink:href="#u"/><use height="100%" width="100%" transform="translate(13.422 6.068)" xlink:href="#u"/><use height="100%" width="100%" transform="translate(17.87 8.114)" xlink:href="#u"/><use height="100%" width="100%" transform="translate(22.415 10.145)" xlink:href="#u"/><use height="100%" width="100%" transform="translate(26.906 12.223)" xlink:href="#u"/><use height="100%" width="100%" transform="translate(31.385 14.324)" xlink:href="#u"/><use height="100%" width="100%" transform="translate(35.888 16.395)" xlink:href="#u"/><use height="100%" width="100%" transform="translate(40.409 18.449)" xlink:href="#u"/><use height="100%" width="100%" transform="translate(44.908 20.529)" xlink:href="#u"/><use height="100%" width="100%" transform="translate(49.335 22.583)" xlink:href="#u"/><use height="100%" width="100%" transform="translate(53.789 24.653)" xlink:href="#u"/><g id="w"><path d="M259.047 153.693l.037.514 2.356 1.203 8.552-5.095-.009-.636z" fill="#241c1c" stroke-width=".265" transform="translate(5.764 1.953)"/><path d="M261.373 154.801l-2.326-1.108 8.563-5.028 2.374 1.014z" fill="url(#v)" stroke-width=".265" transform="translate(5.764 1.953)"/><path d="M267.194 156.795l8.38-5.052" stroke="gray" stroke-width=".185"/><path d="M264.897 155.644l2.372 1.17" stroke="#e6e6e6" stroke-width=".185"/></g><use height="100%" width="100%" transform="translate(4.3 1.95)" xlink:href="#w"/><use height="100%" width="100%" transform="translate(13.23 6.055)" xlink:href="#w"/><use height="100%" width="100%" transform="translate(17.773 8.018)" xlink:href="#w"/><use height="100%" width="100%" transform="translate(22.517 10.19)" xlink:href="#w"/><use height="100%" width="100%" transform="translate(31.438 14.366)" xlink:href="#w"/><use height="100%" width="100%" transform="translate(35.938 16.491)" xlink:href="#w"/><use height="100%" width="100%" transform="translate(44.939 20.546)" xlink:href="#w"/><path d="M335.325 176.083l-20.464 11.951v-3.26l13.578-7.856.467-1.938 5.747-3.407c.311.102.603.241.652.825z" fill="#94b2bd"/></g><g><g transform="translate(-121.239 189.556) scale(3.12053)"><path d="M273.005 138.74l1.795 2.08v2.268l-23.448 13.3-21.956-15.162c-.201-.113-.262-.222-.269-.41-.006-.088.14-.197.252-.273l21.914-12.487c.695-.438 1.218-.334 1.925.038z" fill="#94b2bd"/><g transform="translate(.975 .022)" id="x"><path d="M242.16 142.337l.003.889c0 .32-.163.628-.502.87-.803.574-2.285.56-3.311-.033-.605-.349-.916-.82-.905-1.266.007-.31.006-.927.006-.927z" fill="#999" stroke-width=".205"/><ellipse transform="matrix(.81356 -.58148 .86606 .49995 0 0)" ry="2.145" rx="1.787" cy="280.178" cx="-3.493" fill="#e6e6e6" stroke-width=".215"/><path d="M237.798 141.159l.99.48.439-.327-.911-.485c-.182.08-.37.185-.518.332z" fill="#6d7f97" stroke-width=".229"/></g><path d="M249.653 152.04l1.796 2.08v2.268l-21.968-11.59c-.35-.125-.348-.33-.375-.53l.017-3.468c.026.158.028.223.367.392z" fill="#647a8d"/><path d="M251.449 154.12l23.351-13.3v2.268l-23.351 13.3z" fill="#61778c"/><path d="M249.653 152.04l1.796 2.08 23.351-13.3-1.795-2.08z" fill="#7d92a1"/><use height="100%" width="100%" transform="translate(5.58 -3.213)" xlink:href="#x"/><use height="100%" width="100%" transform="translate(10.748 -6.183)" xlink:href="#x"/><ellipse transform="matrix(.99965 -.02637 .30273 .95308 0 0)" ry=".6" rx=".918" cy="157.096" cx="196.675" fill="#666"/><g id="y" stroke-width=".265"><path d="M252.046 148.524l-6.191-3.373-.756.45 6.167 3.419z" fill="#475a6c"/><g><path d="M227.17 140.444l1.205-.708.024-.841-1.205.756z" fill="#c8b7b7" transform="translate(65.503 34.533) scale(.80147)"/><path d="M227.194 139.65l-2.008-.92.022.854 1.962.86z" fill="#999" transform="translate(65.503 34.533) scale(.80147)"/><path d="M225.186 138.73l1.17-.636 2.043.8-1.205.757z" fill="#e6e6e6" transform="translate(65.503 34.533) scale(.80147)"/></g></g><path d="M262.736 134.633l6.533 3.409-5.129 2.89-6.532-3.409z" fill="#475a6c"/><use xlink:href="#y" width="100%" height="100%" transform="translate(2.693 -1.587)"/><use xlink:href="#y" width="100%" height="100%" transform="translate(5.469 -3.175)"/><use xlink:href="#y" width="100%" height="100%" transform="translate(8.155 -4.763)"/><use xlink:href="#y" width="100%" height="100%" transform="translate(10.9 -6.35)"/><ellipse transform="matrix(.99965 -.02637 .30273 .95308 0 0)" ry=".6" rx=".918" cy="155.52" cx="199.9" fill="#666"/><ellipse transform="matrix(.99965 -.02637 .30273 .95308 0 0)" ry=".6" rx=".918" cy="153.943" cx="203.124" fill="#666"/><ellipse transform="matrix(.99965 -.02637 .30273 .95308 0 0)" ry=".6" rx=".918" cy="152.367" cx="206.349" fill="#666"/><ellipse transform="matrix(.99965 -.02637 .30273 .95308 0 0)" ry=".6" rx=".918" cy="150.791" cx="209.589" fill="#666"/></g><path d="M600.23 629.002l9.778 4.403 64.485-37.727-8.737-4.3z" fill="#7d92a1" stroke="#647a8d" stroke-width=".827"/><path d="M678.27 611.677l1.803.811 11.889-6.959-1.61-.792z" fill="#475a6c"/><path d="M673.67 609.087l1.803.811 11.89-6.956-1.61-.792z" fill="#475a6c"/><path d="M669.566 606.958l1.804.812 11.889-6.956-1.61-.793z" fill="#475a6c"/><path d="M704.822 631.043l1.803.811 6.731-3.776-1.613-.792z" fill="#6d7f97"/><path d="M714.336 625.438l1.8.812 6.732-3.776-1.61-.793z" fill="#6d7f97"/><path d="M275.484 143.562l-16.838 9.823-2.862-1.355" stroke="url(#z)" stroke-width=".32" transform="translate(-196.999 155.58) scale(3.12053)"/><path d="M293.547 149.17l-5.129 2.89-6.307-3.377" stroke="url(#A)" stroke-width=".32" transform="translate(-196.999 155.58) scale(3.12053)"/><path d="M682.635 618.701l16.002-9.018 20.386 10.638" stroke="#000" stroke-width=".999"/></g><g transform="matrix(-3.66508 .27483 0 3.65664 2180.68 -324.332)"><path d="M369.127 179.33c.413.245.73.977.443 1.51l-.56.923c-.27.47-.848.658-1.296.421l-.173-.091c-.449-.237-.593-.806-.323-1.276l.714-1.084c.27-.47.747-.64 1.195-.402zm5.076-10.589l-3.958 10.189s-1.297-1.92-2.4-.76c-1.043 1.094-2.448 2.978-1.438 4.514.861 1.31 2.475.96 3.053.182.578-.78 5.3-10.394 5.3-10.394s.477-1.33.299-2.506c-.178-1.176-.856-1.225-.856-1.225z" fill="silver"/><g><path d="M391.718 159.368c-2.195.146-3.62 1.217-3.62 3.417l.241 10.424s.644-2.387 3.299-3.312c2.655-.925.08-10.53.08-10.53z" fill="#333"/><path d="M391.678 159.364l24.458 12.315v10.492l-24.458-12.316z" fill="#000"/><path d="M415.063 173.54l-6.28-3.163v5.698l6.28 3.162z" fill="#70ebf6"/><path d="M406.953 169.456l-6.28-3.163v5.698l6.28 3.163z" fill="#70ebf6"/><path d="M398.843 165.372l-6.28-3.162v5.698l6.28 3.162z" fill="#469bc6"/><path d="M390.782 161.852s-1.564.331-1.934 1.542c-.37 1.211-.227 3.196-.227 3.196l.568 2.367 1.593-1.389z" fill="#469bc6"/><path d="M388.178 173.286c.04 3.223 4.868 3.545 6.638 4.3 1.77.753 2.293 2.004 2.293 2.004v-10.386s-.523-1.251-2.293-2.005-6.598-1.077-6.638-4.3z" fill="#483737"/><path d="M394.686 169.867c-.822-.561-2.362-.787-3.297-1.072-1.574-.48-2.548-1.058-3.21-2.07l.058 6.839 6.437 2.013z" fill="#469bc6"/><path d="M391.024 171.155c-5.985-2.402-19.676-7.406-33.484-5.612v10.492c14.04-1.793 27.051 3.776 33.332 5.528z" fill="#000"/><path transform="matrix(-.94402 -.32989 0 1 .796 -22.298)" d="M-412.039 59.423h6.653v5.698h-6.653z" fill="url(#B)"/><path d="M381.66 170.347l-6.282-1.338v5.698l6.281 1.338z" fill="#70ebf6"/><path d="M373.549 168.471l-6.281-.663v5.698l6.281.663z" fill="#70ebf6"/><path d="M365.438 167.692l-6.282.145v5.698l6.282-.145z" fill="#70ebf6"/><path d="M390.854 171.112c2.23.472 4.648-.16 6.286-1.926v10.472c-1.638 1.765-4.055 2.398-6.286 1.927z" fill="#000"/><path d="M390.6 195.732c2.091.098 4.106-.161 5.744-1.926v5.754c-1.638 1.765-3.834 2.32-5.683 1.962z" fill="url(#C)" transform="translate(.796 -22.298)"/><g fill="#ececec"><path d="M415.044 171.895l-.868-.436v.942l.868.436z"/><path d="M415.044 179.942l-.868-.436v.942l.868.436z"/><path d="M412.34 170.535l-.866-.437v.942l.867.437z"/><path d="M412.34 178.582l-.866-.437v.942l.867.437z"/><path d="M409.637 169.173l-.867-.436v.942l.867.436z"/><path d="M409.637 177.22l-.867-.436v.942l.867.436z"/><path d="M406.934 167.812l-.868-.437v.942l.868.437z"/><path d="M406.934 175.859l-.868-.437v.942l.868.437z"/><path d="M404.231 166.451l-.867-.437v.942l.867.437z"/><path d="M404.231 174.498l-.867-.437v.942l.867.437z"/><path d="M401.527 165.09l-.867-.437v.942l.867.437z"/><path d="M401.527 173.137l-.867-.437v.942l.867.437z"/><path d="M398.824 163.728l-.867-.436v.942l.867.436z"/><path d="M398.824 171.775l-.867-.436v.942l.867.436z"/><path d="M396.121 162.368l-.867-.437v.942l.867.437z"/><path d="M393.418 161.006l-.868-.436v.942l.868.436z"/><path d="M389.75 171.373l-.868-.303v.942l.868.303z"/><path d="M389.75 179.42l-.868-.303v.942l.868.303z"/><path d="M387.046 170.429l-.867-.303v.942l.867.303z"/><path d="M387.046 178.476l-.867-.303v.942l.867.303z"/><path d="M384.343 169.485l-.867-.303v.942l.867.303z"/><path d="M384.343 177.532l-.867-.303v.942l.867.303z"/><path d="M381.64 168.675l-.868-.2v.941l.867.2z"/><path d="M381.64 176.722l-.868-.2v.941l.867.2z"/><path d="M378.936 168.05l-.867-.2v.942l.867.2z"/><path d="M378.936 176.098l-.867-.2v.941l.867.2z"/><path d="M376.232 167.426l-.867-.2v.942l.867.2z"/><path d="M376.232 175.473l-.867-.2v.942l.867.2z"/><path d="M373.53 166.625l-.866-.102v.942l.867.102z"/><path d="M373.53 174.672l-.866-.102v.942l.867.102z"/><path d="M370.828 166.306l-.867-.102v.942l.867.102z"/><path d="M370.828 174.353l-.867-.102v.942l.867.102z"/><path d="M368.124 165.987l-.867-.102v.942l.867.102z"/><path d="M368.124 174.034l-.867-.102v.942l.867.102z"/><path d="M365.477 165.958l-.867.036v.942l.867-.036z"/><path d="M365.477 174.005l-.867.036v.942l.867-.036z"/><path d="M362.775 166.07l-.867.037v.942l.867-.036z"/><path d="M362.775 174.118l-.867.036v.942l.867-.036z"/><path d="M360.071 166.184l-.867.036v.942l.867-.036z"/><path d="M360.071 174.23l-.867.037v.942l.867-.036z"/><path d="M392.425 179.837l-.978-.026v.942l.978.026z"/><path d="M395.416 179.045c-.265.148-.53.296-.979.418v.942c.342-.087.676-.2.978-.418z"/><path d="M397.15 177.9l-.23.192v.942l.23-.191z"/><path d="M392.394 171.885l-.978-.025v.942l.978.025z"/><path d="M395.385 171.092c-.265.148-.53.296-.978.419v.942c.342-.087.676-.201.978-.418z"/><path d="M397.12 169.948l-.23.192v.942l.23-.192z"/><path d="M394.775 167.962a2.191 2.191 0 00-.868-.357v.943c.316.057.589.214.868.356z"/><path d="M392.011 167.139c-.273-.064-.556-.126-.867-.215v.942c.282.108.576.152.867.215z"/><path d="M389.368 165.995c-.304-.132-.591-.363-.867-.658v.942c.236.365.547.525.867.658z"/><path d="M390.761 160.324l-.867.276v.942l.867-.276z"/><path d="M388.692 161.639c-.223.196-.358.382-.49.82v.941c.15-.287.125-.444.49-.819z"/></g><path d="M357.54 165.543c2.368-.403 4.756-.428 7.56-.332 2.802.096 5.974.403 9.03 1.013 5.371 1.179 10.738 2.516 16.086 4.665 1.526.613 3.335.687 5.62-.567 1.225-.686 1.72-1.385.24-2.29-1.408-.92-2.73-1.197-4.075-1.652-1.733-.77-4.047-1.268-3.799-3.921.06-2.354 2.154-3.566 4.354-2.792l23.58 12.012v10.492" stroke="#649baf" stroke-width=".516"/></g><path d="M374.408 179.007c-.435.27-.816 1.024-.576 1.54l.48.892c.23.454.794.606 1.264.34l.182-.102c.47-.265.664-.845.434-1.3l-.62-1.042c-.23-.454-.693-.594-1.164-.328zm-4.163-10.303l3.078 9.97s1.468-2.005 2.474-.912c.949 1.032 2.193 2.834 1.046 4.438-.979 1.366-2.566 1.117-3.078.372-.511-.745-4.405-10.092-4.405-10.092s-.362-1.303-.08-2.493.965-1.283.965-1.283z" fill="#ececec"/><circle transform="skewY(-4.298) scale(-.99719 1)" cy="204.737" cx="-372.959" r=".428" fill="#c8b7b7"/><path d="M373.323 178.674l-3.078-9.97" stroke="#999" stroke-width=".273"/></g><g transform="matrix(-3.66508 .27483 0 3.65664 2075.46 -141.71)"><path d="M359.514 67.718c1.692-4.91-52.81 33.027 29.568 43.326" stroke="#4cccee" stroke-width="1.353"/><g transform="matrix(.99895 -.1631 .16145 .97469 -.01 16.505)"><path d="M337.987 95.487c1.492 2.212 2.796 2.888 4.834 4.264.172.918-1.52 6.74-.431 8.857a.863.93 43.045 01.83.4.863.93 43.045 01-.35 1.244.863.93 43.045 01-1.217-.26.863.93 43.045 01.036-.928c-1.262-2.006-6.991-3.18-7.687-3.771-.205-2.529-.162-4.05-1.33-6.467 1.801-1.062 3.557-2.203 5.315-3.34z" fill="url(#D)"/><path d="M338.498 101.855l-.327.205 3.875 6.748.328-.206z" fill="#7e7e7e"/><path d="M338.345 101.991l-.328.206 3.876 6.747.328-.206z" fill="#000"/><path d="M336.34 92.28c-2.086.847-3.964 2.055-5.67 3.562-.19.169-.291.409-.173.615l1.721 2.995c.118.206.412.3.6.129 1.555-1.412 3.355-2.66 5.67-3.563.232-.09.29-.408.172-.614l-1.72-2.995c-.119-.206-.368-.223-.6-.13z" fill="url(#E)"/><path d="M338.665 95.415c.11.205.052.514-.178.604-2.314.902-4.114 2.15-5.67 3.562-.181.165-.46.082-.585-.11 2.48-2.362 3.75-3.119 6.433-4.056z" fill="#406f9c"/><ellipse cy="266.139" cx="-242.826" rx=".687" ry=".645" transform="matrix(-.84671 .53205 .4981 .86712 0 0)" fill="#7e7e7e"/><ellipse cy="266.169" cx="-242.581" rx=".687" ry=".645" transform="matrix(-.84671 .53205 .4981 .86712 0 0)" fill="#000" stroke="#000" stroke-width=".114"/><path d="M336.19 92.339l1.858 3.294-1.457.59-1.692-3.3z" fill="#fff" fill-opacity=".609"/></g><ellipse ry="1.774" rx="1.775" cy="109.771" cx="-344.947" transform="skewY(-4.298) scale(-.99719 1)" fill="#000" stroke="#4cccee" stroke-width=".678"/><ellipse transform="skewY(-4.298) scale(-.99719 1)" ry="1.774" rx="1.775" cy="129.961" cx="-358.312" fill="#000" stroke="#4cccee" stroke-width=".678"/></g><g transform="translate(-768.062 -239.844) scale(3.12053)"><path d="M286.167 171.064l-.41.42-.37 1.219.435.83-.523.206-.44 1.212.144.971-.647.162-.465.554.027 1.777-.552.223-.6 1.147-1.32-.975 3.032-8.89z" fill="#16375f"/><path d="M275.727 167.275l.251.605-.48.923-.914.463.301.587-.385 1.146-.643.45.343.563-.423 1.047-.702.739.418.561-.385 1.147 2.217.81 2.796-9.13-1.886-.133-.508.223" fill="#16375f"/><path d="M279.008 166.355c-1.077-.129-2.672.308-3.281.92l.512.135s.62.198.392.774c-.23.576-.867.324-.867.324l-.73-.21s-.362.711-.4.816l-.05.152.827.216s.62.198.391.774c-.229.577-.867.325-.867.325l-.729-.173c-.155.466-.2.595-.35 1.042l.796.207s.62.198.391.775c-.229.576-.867.324-.867.324l-.68-.136c-.199.596-.229.596-.42 1.178l.812.212s.62.198.391.774c-.229.577-.867.324-.867.324l-.695-.174c-.062.188-.152.404-.2.557-.575 1.791 1.354 3.283 1.354 3.283s3.79 2.74 6.107 2.849c2.317.109 3.124-1.503 3.11-1.516-.001-.002.119-.236.281-.56a12.85 12.85 0 00-.651-.478c-.585-.464-.124-.909-.124-.909s.238-.43.988.02c.119.08.227.157.336.235.186-.392.39-.846.597-1.32-.192-.148-.395-.3-.624-.457-.585-.464-.125-.909-.125-.909s.24-.43.99.02c.087.058.165.115.247.173.15-.378.291-.763.425-1.148a12.79 12.79 0 00-.664-.49c-.584-.463-.125-.907-.125-.907s.239-.431.989.019c.068.045.129.09.194.136.1-.364.182-.718.244-1.056a12.92 12.92 0 00-.606-.444c-.585-.464-.125-.908-.125-.908s.21-.36.832-.06c-.024-.313-.085-.592-.203-.816-1.196-2.271-4.016-3.277-6.956-3.893z" fill="url(#F)"/><path d="M272.42 176.377c.128 1.37 1.448 2.395 1.448 2.395s3.79 2.74 6.107 2.849c1.383.064 2.224-.482 2.678-.938-1.39-1.82-4.018-2.71-6.332-3.533a15.344 15.344 0 00-3.9-.773z" fill="#989898"/><path d="M279.57 183.941l.434 7.283-2.74 1.77-2.105-5.411z" fill="#698793"/><path d="M275.16 183.14s-3.141 1.403-2.974 7.984l5.078 1.87s-.869-5.244 2.305-9.053z" fill="#33515c"/><path d="M278.767 185.01l-5.946-1.77s-.635-.234-.635-1.237c0-1.002.774-3.062.969-3.474.209-.442.608-.893 1.152-.735l4.424 1.28 1.308 1.481z" fill="#3c5a66"/><path d="M278.73 179.075l-.931 3.764s-.301 1.67.968 2.171c1.27.501 1.805-1.87 1.805-1.87l.467-2.573z" fill="#688794"/><ellipse ry=".735" rx=".551" cy="183.306" cx="279.185" fill="#b6d3de"/><path d="M277.067 174.887c1.498.376 2.423.888 3.38 1.53 0 0 .586.321.307.875-.28.554-.878.177-.878.177-.943-.567-1.79-1.05-3.323-1.454-.707-.24-.424-.814-.424-.814s.08-.486.938-.314z" fill="#16375f"/><path d="M278.054 172.56c1.498.376 2.423.888 3.38 1.53 0 0 .586.322.307.876-.28.553-.878.176-.878.176-.943-.567-1.79-1.05-3.323-1.454-.707-.24-.424-.813-.424-.813s.08-.486.938-.315z" fill="#16375f"/><path d="M278.967 170.34c1.498.376 2.423.889 3.38 1.53 0 0 .586.322.307.876-.28.554-.878.176-.878.176-.943-.566-1.79-1.049-3.324-1.454-.706-.24-.423-.813-.423-.813s.08-.486.938-.315z" fill="#16375f"/><path d="M279.84 168.183c1.497.377 2.422.889 3.38 1.53 0 0 .586.322.306.876-.279.554-.878.176-.878.176-.943-.566-1.79-1.049-3.323-1.453-.707-.24-.423-.814-.423-.814s.08-.486.937-.315z" fill="#16375f"/></g><path d="M601.66 629.027l64.14-36.788 7.72 3.709" stroke="#475a6c"/></g></svg>