<?xml version="1.0" encoding="UTF-8" standalone="no"?><svg xmlns="http://www.w3.org/2000/svg" xmlns:xlink="http://www.w3.org/1999/xlink" fill="none" height="694.523" width="1091.393"><defs><linearGradient id="u"><stop offset="0" stop-color="#5998b2"/><stop offset="1" stop-color="#abffff" stop-opacity="0"/></linearGradient><linearGradient id="w"><stop offset="0" stop-color="#8af2fa"/><stop offset="1" stop-color="#8af2fa" stop-opacity="0"/></linearGradient><linearGradient id="r"><stop stop-opacity=".302" offset="0"/><stop stop-opacity="0" offset="1"/></linearGradient><linearGradient id="k"><stop stop-color="#b6d8e0" offset="0"/><stop stop-color="#6dbcd3" offset="1"/></linearGradient><linearGradient id="o"><stop stop-color="#abffff" offset="0"/><stop stop-opacity="0" stop-color="#abffff" offset="1"/></linearGradient><linearGradient id="j"><stop stop-opacity="0" stop-color="#f9f9f9" offset="0"/><stop stop-opacity=".584" stop-color="#edf9f9" offset=".081"/><stop stop-opacity=".953" stop-color="#85fafd" offset=".334"/><stop stop-opacity=".619" stop-color="#85fafd" offset=".81"/><stop stop-opacity="0" stop-color="#85fafd" offset="1"/></linearGradient><linearGradient id="h"><stop stop-opacity="0" stop-color="#fff" offset="0"/><stop stop-color="#87fafd" offset=".519"/><stop stop-opacity="0" stop-color="#fff" offset="1"/></linearGradient><linearGradient id="v"><stop stop-color="#85fafd" offset="0"/><stop stop-opacity=".056" stop-color="#fff" offset="1"/></linearGradient><linearGradient id="c"><stop stop-color="#abffff" offset="0"/><stop stop-opacity="0" stop-color="#abffff" offset="1"/></linearGradient><linearGradient id="i"><stop stop-color="#106cb5" offset="0"/><stop stop-color="#3684bc" offset="1"/></linearGradient><linearGradient id="m"><stop stop-color="#599ab4" offset="0"/><stop stop-color="#607688" offset="1"/></linearGradient><linearGradient id="n"><stop stop-color="#475a6c" offset="0"/><stop stop-color="#5c89a0" offset="1"/></linearGradient><linearGradient id="p"><stop stop-color="#abffff" offset="0"/><stop stop-color="#fff" offset=".495"/><stop stop-color="#d4ffff" offset="1"/></linearGradient><linearGradient id="q"><stop stop-color="#8bcad9" offset="0"/><stop stop-color="#88cbdc" offset="1"/></linearGradient><linearGradient id="b"><stop stop-color="#649baf" offset="0"/><stop stop-color="#647a8d" offset="1"/></linearGradient><linearGradient id="a"><stop stop-color="#57a2be" offset="0"/><stop stop-color="#607688" offset="1"/></linearGradient><linearGradient id="l"><stop stop-color="#ececec" offset="0"/><stop stop-color="#85fafd" offset="1"/></linearGradient><linearGradient id="t"><stop stop-color="#8cd8e0" offset="0"/><stop stop-color="#c1d3d5" offset="1"/></linearGradient><linearGradient id="s"><stop stop-color="#7cffff" offset="0"/><stop stop-color="#fff" offset="1"/></linearGradient><linearGradient id="d"><stop stop-color="#758b9a" offset="0"/><stop stop-color="#5b7287" offset="1"/></linearGradient><linearGradient id="e"><stop stop-color="#869ba8" offset="0"/><stop stop-color="#738999" offset="1"/></linearGradient><linearGradient id="f"><stop stop-color="#141437" offset="0"/><stop stop-color="#3055b2" offset="1"/></linearGradient><linearGradient id="g"><stop stop-color="#748a9a" offset="0"/><stop stop-color="#5d7489" offset="1"/></linearGradient><linearGradient id="x"><stop stop-color="#666" offset="0"/><stop stop-color="#333" offset="1"/></linearGradient><linearGradient id="y"><stop stop-color="#469bc6" offset="0"/><stop stop-color="#0c59a6" offset="1"/></linearGradient><linearGradient gradientUnits="userSpaceOnUse" y2="128.761" x2="299.304" y1="111.64" x1="312.323" id="X" xlink:href="#a"/><linearGradient gradientUnits="userSpaceOnUse" y2="110.848" x2="295.373" y1="100.124" x1="296.887" id="Y" xlink:href="#b"/><linearGradient gradientTransform="translate(0 .09)" gradientUnits="userSpaceOnUse" y2="106.087" x2="297.135" y1="98.593" x1="296.906" id="Z" xlink:href="#c"/><linearGradient gradientUnits="userSpaceOnUse" y2="151.026" x2="267.102" y1="147.152" x1="255.783" id="z" xlink:href="#d"/><linearGradient gradientUnits="userSpaceOnUse" y2="138.856" x2="283.022" y1="104.649" x1="253.986" id="A" xlink:href="#e"/><linearGradient y2="140.445" x2="284.707" y1="107.303" x1="255.043" gradientUnits="userSpaceOnUse" id="B" xlink:href="#f"/><linearGradient gradientUnits="userSpaceOnUse" y2="582.354" x2="1087.806" y1="522.711" x1="968.064" id="C" xlink:href="#g"/><linearGradient gradientTransform="translate(0 .09)" gradientUnits="userSpaceOnUse" y2="89.441" x2="207.421" y1="53.308" x1="184.556" id="E" xlink:href="#h"/><linearGradient gradientUnits="userSpaceOnUse" y2="74.543" x2="204.712" y1="82.365" x1="182.505" id="F" xlink:href="#i"/><linearGradient gradientTransform="translate(-.126 .063)" gradientUnits="userSpaceOnUse" y2="61.705" x2="196.153" y1="17.483" x1="196.346" id="G" xlink:href="#j"/><linearGradient gradientUnits="userSpaceOnUse" y2="147.553" x2="400.269" y1="137.083" x1="393.212" id="I" xlink:href="#k"/><linearGradient gradientUnits="userSpaceOnUse" y2="143.905" x2="375.657" y1="125.345" x1="390.621" id="J" xlink:href="#l"/><linearGradient gradientUnits="userSpaceOnUse" y2="182.358" x2="423.667" y1="176.626" x1="395.099" id="L" xlink:href="#m"/><linearGradient gradientUnits="userSpaceOnUse" y2="177.151" x2="393.614" y1="183.879" x1="417.833" id="M" xlink:href="#n"/><linearGradient gradientTransform="translate(.268 .045)" gradientUnits="userSpaceOnUse" y2="166.766" x2="413.735" y1="183.539" x1="384.963" id="N" xlink:href="#o"/><linearGradient gradientUnits="userSpaceOnUse" y2="186.59" x2="396.791" y1="186.59" x1="384.605" id="O" xlink:href="#o"/><linearGradient gradientUnits="userSpaceOnUse" y2="402.698" x2="675.055" y1="364.444" x1="654.127" id="T" xlink:href="#p"/><linearGradient gradientUnits="userSpaceOnUse" y2="64.366" x2="591.059" y1="57.451" x1="591.595" id="U" xlink:href="#q"/><linearGradient gradientUnits="userSpaceOnUse" y2="-304.565" x2="201.904" y1="-313.74" x1="204.763" id="P" xlink:href="#r"/><linearGradient gradientUnits="userSpaceOnUse" y2="-282.45" x2="226.377" y1="-294.431" x1="227.309" id="Q" xlink:href="#r"/><linearGradient gradientUnits="userSpaceOnUse" y2="-258.181" x2="255.151" y1="-268.51" x1="254.095" id="R" xlink:href="#r"/><linearGradient gradientUnits="userSpaceOnUse" y2="-207.358" x2="307.589" y1="-221.185" x1="299.295" id="S" xlink:href="#r"/><linearGradient gradientUnits="userSpaceOnUse" y2="90.148" x2="333.147" y1="84.813" x1="343.005" id="V" xlink:href="#s"/><linearGradient gradientUnits="userSpaceOnUse" y2="95.886" x2="342.658" y1="95.886" x1="332.69" id="W" xlink:href="#t"/><linearGradient gradientTransform="translate(-852.224 -162.542)" gradientUnits="userSpaceOnUse" y2="681.595" x2="1401.896" y1="681.595" x1="1364.416" id="ag" xlink:href="#u"/><linearGradient gradientUnits="userSpaceOnUse" y2="81.572" x2="205.211" y1="81.412" x1="202.963" id="H" xlink:href="#w"/><linearGradient gradientUnits="userSpaceOnUse" y2="143.905" x2="375.657" y1="125.345" x1="390.621" id="K" xlink:href="#l"/><radialGradient gradientUnits="userSpaceOnUse" gradientTransform="matrix(.99991 -.01308 .01912 1.461 -816.322 -397.69)" r="61.782" fy="570.043" fx="1236.043" cy="570.043" cx="1236.043" id="D" xlink:href="#v"/><radialGradient gradientUnits="userSpaceOnUse" gradientTransform="matrix(.51123 0 0 .52166 100.53 58.486)" r="4.699" fy="162.23" fx="300.778" cy="162.23" cx="300.778" id="aa" xlink:href="#x"/><radialGradient gradientUnits="userSpaceOnUse" gradientTransform="matrix(.62294 -.00922 .0124 .63294 64.916 43.205)" r="3.221" fy="163.301" fx="300.919" cy="163.301" cx="300.919" id="ab" xlink:href="#y"/><radialGradient gradientUnits="userSpaceOnUse" gradientTransform="matrix(1 0 0 1.0204 -46.483 -22.425)" r="1.322" fy="161.887" fx="300.661" cy="161.887" cx="300.661" id="ac" xlink:href="#x"/><radialGradient gradientUnits="userSpaceOnUse" gradientTransform="matrix(1 0 0 1.0204 -46.483 -22.425)" r="4.699" fy="162.23" fx="300.778" cy="162.23" cx="300.778" id="ad" xlink:href="#x"/><radialGradient gradientUnits="userSpaceOnUse" gradientTransform="matrix(1.22862 -.01818 .02447 1.24835 -119.218 -53.937)" r="3.221" fy="163.301" fx="300.919" cy="163.301" cx="300.919" id="ae" xlink:href="#y"/><radialGradient gradientUnits="userSpaceOnUse" gradientTransform="matrix(1 0 0 1.0204 -46.483 -22.425)" r="1.322" fy="161.887" fx="300.661" cy="161.887" cx="300.661" id="af" xlink:href="#x"/></defs><g><g transform="matrix(-3.6651 .27483 0 3.65665 2127.81 -194.371)"><path d="M390.887 87.256l-.765-.265s-.362-.376-.402-1.502c-.04-1.126.362-18.413.362-18.413s.241-.744.764-1.146c.523-.402 13.07-6.927 13.07-6.927s.804-.423 1.126.117c.322.54-.322 2.726-.322 2.726z" fill="#748a9a"/><path d="M390.953 66.943l14.222-7.797v20.47l-14.222 7.627z" fill="#94b2bd"/><path d="M402.232 62.288L392.049 67.7v17.734l10.183-5.47z" fill="#fff"/><rect ry=".399" transform="matrix(-.87897 .47688 0 1 0 0)" y="284.526" x="-459.851" height="3.877" width=".906" rx=".399" fill="#748a9a"/><rect ry=".399" transform="matrix(-.87897 .47688 0 1 0 0)" y="290.355" x="-459.883" height="3.877" width=".906" rx=".399" fill="#748a9a"/><g transform="matrix(-.99719 .54102 0 1 0 185.588)" fill="#999"><rect width="2.431" height=".464" x="-400.456" y="98.376" ry=".232" rx=".163"/><rect width="6.001" height=".464" x="-401.843" y="100.56" ry=".232" rx=".163"/><rect width="7.372" height=".464" x="-401.883" y="102.062" ry=".232" rx=".163"/><rect width="5.113" height=".464" x="-401.883" y="103.564" ry=".232" rx=".163"/><rect width="5.113" height=".464" x="-401.883" y="105.066" ry=".232" rx=".163"/><rect width="7.292" height=".464" x="-401.883" y="106.568" ry=".232" rx=".163"/><rect width="7.292" height=".464" x="-401.843" y="108.069" ry=".232" rx=".163"/><rect width="4.387" height=".464" x="-401.843" y="109.571" ry=".232" rx=".163"/><rect width="4.569" height=".464" x="-401.47" y="97.112" ry=".232" rx=".163"/></g></g><g><g><g transform="translate(-472.097 66.338) scale(3.12053)"><path d="M268.004 155.604l11.56-6.648-.702-1.196-11.592-.134-.97 6.169z" fill="#475a6c"/><path d="M278.862 147.76s.97-.435-5.479 1.97c-6.448 2.406-5.378 5.874-5.378 5.874l-13.498-6.581s-.926-3.115 5.38-5.874c2.672-1.17 5.796-1.804 5.796-1.804z" fill="url(#z)"/><path d="M251.34 134.668l-2.646-36.995c0-1.448 3.3-3.453 4.93-2.776l7.715 3.55 28.91 13.3c1.655.762 2.785 2.555 2.785 4.306v36.323c.098 2.25-3.6 5.037-5.316 4.262L254.08 138.46c-2.052-.695-2.435-2.225-2.74-3.793z" fill="#94b2bd"/><path d="M248.694 136.255V98.41c0-1.448.654-2.602 2.285-1.925l36.624 16.85c1.655.761 2.785 2.555 2.785 4.305v36.324c.099 2.249-1.38 3.43-3.095 2.655l-35.86-16.57c-2.05-.696-2.433-2.225-2.739-3.794z" fill="url(#A)"/><path d="M257.945 144.202l13.607 6.284 1.653 2.268 2.835-1.796-2.362-3.685-13.324-4.677z" fill="#000" fill-opacity=".343"/><path d="M250.966 100.42l36.55 17.039v28.264l-36.617-17.172z" fill="url(#B)"/><path d="M944.492 500.088v20.953c1.154 5.928 2.6 11.71 10.354 14.338l135.533 62.627c6.48 2.932 12.068-1.533 11.695-10.035v-12.196z" transform="translate(-1.203 -1.604) scale(.26458)" fill="url(#C)"/><ellipse cy="-27.057" cx="329.5" rx="1.045" ry="1.136" transform="matrix(.84179 .53981 -.29125 .95665 0 0)" fill="#94b2bd"/><path d="M290.522 143.216s-.33-20.048-.067-24.656c.234-4.092-3.265-5.352-3.265-5.352l-35.671-16.49s-1.832-.971-2.473.192" stroke="#cdd9dd" stroke-width=".165"/><path d="M290.288 150.666l-29.734-14.232" stroke="#45596d" stroke-width=".265"/><path d="M290.236 150.997l-29.734-14.232" stroke="#a1b4bc" stroke-width=".265"/><ellipse cy="-27.272" cx="329.546" rx="1.045" ry="1.136" transform="matrix(.84179 .53981 -.29125 .95665 0 0)" fill="#738999"/><g fill="#3055b2" stroke-width=".213"><path overflow="visible" style="marker:none" d="M268.684 116.287a8.591 6.443 49.107 00-5.281.656c-.024.017-.045.03-.067.048a1.169.876 49.107 001.496 1.794 6.282 4.711 49.107 017.712 2.227 6.282 4.711 49.107 010 7.712 6.282 4.711 49.107 01-7.712-2.227 1.173.88 49.107 00-1.705-.04c-.093.325.014.727.276 1.057 2.91 3.75 7.66 5.121 10.57 3.051 2.91-2.07 2.91-6.82 0-10.57a8.613 6.46 49.107 00-5.29-3.708zm0 3.501c-1.018-.294-2.036-.197-2.808.352a4.602 3.451 49.107 000 5.615 4.602 3.451 49.107 005.615 1.62 4.602 3.451 49.107 000-5.614 4.576 3.432 49.107 00-2.807-1.973zm-9.585-2.424a1.25.938 49.107 00-1.02.516 12.097 9.072 49.107 00.001 5.582 1.223.917 49.107 102.047.048c-.421-1.694-.421-3.043 0-4.496a1.215.911 49.107 00-.51-1.367 1.223.917 49.107 00-.518-.283zm3.243 1.864a1.172.879 49.107 00-.886.504 8.43 6.322 49.107 00.009 3.872c.144.58.697 1.056 1.236 1.067.54.011.864-.448.72-1.029-.269-1.078-.277-1.895-.01-2.819a1.173.88 49.107 00-.443-1.273 1.155.866 49.107 00-.627-.323zm6.342 2.507c.515.15 1.031.494 1.429 1.006a2.323 1.742 49.107 010 2.858 2.312 1.734 49.107 01-2.85-.823 2.323 1.742 49.107 010-2.858 2.302 1.727 49.107 011.42-.183z"/><path overflow="visible" style="marker:none" d="M276.798 119.535a1.25.938 49.107 00-.177-1.341 12.097 9.072 49.107 00-4.802-4.233 1.223.917 49.107 10-.576 1.872c1.568.893 2.728 1.915 3.867 3.409.34.46.882.692 1.309.561a.711.711 0 00.38-.268z"/><path overflow="visible" style="marker:none" d="M276.648 132.669a1.25.937 49.107 01-.183 1.237 12.097 9.072 49.107 01-4.813 1.437 1.223.917 49.107 11-.568-2.204c1.57.02 2.733-.328 3.876-1.159a1.215.911 49.107 011.31.2c.16.143.29.31.377.488z"/></g></g><path d="M425.311 520.547l-95.704-43.997" stroke="#738cb6" stroke-width=".827"/></g><path d="M319.627 362.468l114.287 52.581c5.166 2.377 8.69 7.973 8.69 13.435v113.348" stroke="url(#D)" stroke-width=".826"/></g><g transform="translate(-408.067 63.657) scale(3.12053)"><path d="M195.35 31.895l-3.603-3.008s-1.462-2.91-1.511-4.203c1.04-2.516.753-4.83 1.806-6.954.053-.11.611-.377.701-.436 1-.659 4.246 1.559 3.784 3.253-.213.73-.705 1.129-.74 1.933-.095 2.24 1.045 4.268 2.07 7.223.386 1-2.506 2.192-2.506 2.192z" fill="#588294"/><path d="M185.714 56.046c-1.052-2.916-2.229-4.303-2.952-3.772-.512.376-3.442.814-3.155 2.774.034 2.342 3.463 6.314 5.103 9.695 1.64 3.38 2.224 5.21.214 6.602-1.999 1.384-3.686 3.685-3.687 6.744 0 7.05 4.814 14.57 11.865 17.858 7.05 3.287 14.833 2.446 14.833-4.605-.005-6.276-2.402-7.905-2.51-11.448-.107-3.544 4.572-2.108 3.087-8.114-.887-3.589-1.844-4.277-2.574-3.88-.491.267-2.816.932-3.01 1.629-.408 1.46.209 3.872-3.295 2.208-3.503-1.664-4.177-8.766-4.177-8.766s-3.443 1.092-5.32-.531c-1.875-1.624-4.422-6.394-4.422-6.394z" fill="#3a94d6"/><path d="M207.935 91.431c-.005-6.275-2.402-7.905-2.51-11.448-.107-3.543 4.572-2.107 3.087-8.114-.887-3.589-1.844-4.277-2.574-3.88-.491.267-2.816.932-3.01 1.629-.408 1.46.209 3.872-3.295 2.208-3.503-1.664-4.177-8.766-4.177-8.766s-3.443 1.093-5.32-.531c-1.875-1.624-4.422-6.394-4.422-6.394-1.052-2.915-2.229-4.303-2.952-3.771" stroke="url(#E)" stroke-width=".269"/><path d="M183.068 57.302c-1.796-4.976-3.955-5.5-3.602.373.033 2.342.958 4.944 2.599 8.325 1.64 3.38 2.223 5.21.213 6.601-1.999 1.384-3.686 3.686-3.686 6.745-.001 7.05 6.845 13.152 13.896 16.44 7.05 3.288 12.801 3.864 12.801-3.187-.005-6.276-2.402-7.905-2.51-11.448-.107-3.544 4.573-2.108 3.087-8.114-1.485-6.007-3.165-3.888-3.647-2.157-.408 1.46-1.728 3.777-5.232 2.114-3.503-1.664-3.751-8.625-3.751-8.625s-3.87.951-5.745-.672c-1.876-1.624-4.423-6.395-4.423-6.395z" fill="url(#F)"/><path d="M188.894 67.406s-.19 8.41-1.607 11.339c-1.417 2.93-.869 4.722.567 6.237 1.818 1.916 6.804-.567 7.843 1.133 1.04 1.701 3.97 7.466 5.954 7.466 1.984 0 2.834-2.457 2.645-3.97-.189-1.511-3.212-8.031-2.55-10.016.66-1.984 3.212-1.89 3.59-3.78.378-1.89-.567-5.102-1.04-5.669-.472-.567-.945.189-1.417 1.7-.472 1.513-2.079 3.592-4.252 2.647-2.174-.945-5.67-3.875-5.67-3.875s-2.551-7.276-4.063-3.212z" fill="#fff"/><path d="M188.705 67.469s-.19 8.41-1.607 11.339c-1.417 2.93-.87 4.722.567 6.237 1.818 1.916 6.804-.567 7.843 1.134 1.04 1.7 3.969 7.465 5.953 7.465 1.985 0 2.835-2.457 2.646-3.97-.189-1.511-3.213-8.031-2.551-10.016.661-1.984 3.213-1.89 3.59-3.78.379-1.89-.566-5.102-1.039-5.669-.472-.567-.945.19-1.417 1.701-.473 1.512-2.08 3.59-4.253 2.646-2.173-.945-5.67-3.874-5.67-3.874s-2.55-7.276-4.062-3.213z" fill="#c4ebfd"/><rect transform="skewY(28.55) scale(.8784 1)" rx="1.652" ry="1.871" y="-75.01" x="216.645" height="43.373" width="5.946" fill="#475a6c"/><rect ry="1.871" rx=".802" y="31.096" x="194.505" height="42.897" width="1.069" fill="#798f9e"/><rect transform="skewY(25) scale(.9063 1)" ry="1.871" rx=".714" y="-14.753" x="208.688" height="1.91" width="7.728" fill="#798f9e"/><rect transform="skewY(25) scale(.9063 1)" ry="1.871" rx=".714" y="-9.777" x="208.427" height="1.91" width="7.728" fill="#798f9e"/><rect transform="skewY(25) scale(.9063 1)" ry="1.871" rx=".522" y="-5.263" x="208.323" height="2.761" width="7.728" fill="#475a6c"/><rect transform="skewY(25) scale(.9063 1)" ry="1.871" rx=".714" y="-24.733" x="210.291" height=".943" width="3.817" fill="#798f9e"/><rect transform="skewY(25) scale(.9063 1)" ry="1.871" rx=".714" y="-31.083" x="210.291" height=".943" width="3.817" fill="#798f9e"/><rect transform="skewY(25) scale(.9063 1)" ry="1.871" rx=".714" y="-38.491" x="210.291" height=".943" width="3.817" fill="#798f9e"/><rect transform="skewY(25) scale(.9063 1)" ry="1.871" rx=".714" y="-54.895" x="210.291" height=".943" width="3.817" fill="#798f9e"/><path d="M195.234 31.895l-4.923-2.123s-1.463-2.91-1.512-4.203c1.04-2.516 2.056-5.581 3.11-7.705.64-1.328 4.303 1.22 3.8 3.067-.213.73-.873 1.062-.907 1.866-.095 2.24.961 4.536 1.987 7.491.385 1-1.555 1.607-1.555 1.607z" fill="#3d6378"/><path d="M195.583 63.123l-.169-30.629c-.062-.603.343-.727.563-.845l1.494-.976c.495-.433.327-.713.307-1.027l-1.938-5.674c-.215-.58-.18-1.222-.02-1.8l.486-1.212s.276-.902.075-1.237c-.431-.717-1.387-1.684-2.223-2.198" stroke="url(#G)" stroke-width=".32"/><rect transform="skewY(25) scale(.9063 1)" ry="1.871" rx=".714" y="-14.524" x="208.386" height="1.91" width="7.728" fill="#a6c3ce"/><rect transform="skewY(25) scale(.9063 1)" ry="1.871" rx=".714" y="-9.547" x="208.125" height="1.91" width="7.728" fill="#a6c3ce"/><rect transform="skewY(25) scale(.9063 1)" ry="1.871" rx=".522" y="-5.033" x="208.021" height="2.761" width="7.728" fill="#7ba5bb"/><path d="M203.494 97.321c1.14-.83 1.795-2.342 1.795-4.722-.005-6.276-2.402-7.905-2.51-11.448-.107-3.544 4.573-2.108 3.087-8.114" stroke="url(#H)" stroke-width=".269"/></g><g><path d="M281.449 293.464l-35.087-15.773 11.901-9.154 34.366 14.028z" fill="#000" fill-opacity=".395"/><path d="M348.975 248.2l-15.078-6.46 10.138-7.678 14.667 6.201-6.103 5.414z" fill="#000" fill-opacity=".386"/><g stroke-width=".226"><path d="M390.705 153.698l2.576.68c.73.233 1.27-.214 1.608-1.141l6.856-21.482c.326-.757.197-1.765-.634-2.299l-1.374-.818-9.423 21.104z" fill="url(#I)" transform="matrix(-3.6651 .27483 0 3.65665 1700.203 -401.594)"/><path d="M280.631 262.573l.81 30.89 8.258 1.033-2.064-28.455z" fill="#13528c"/><path d="M289.699 294.496l7.96-5.16-2.947-25.654-7.374 2.36z" fill="#3378a6"/><path d="M339.533 234.93l9.434 13.272 6.78-.886-11.79-16.071z" fill="#0c67b5"/><path d="M355.751 247.462l7.074-7.075-12.975-13.12-5.893 3.978z" fill="#1a7fc3"/><path d="M351.43 218.987l4.739 7.817c.806 1.45.49 2.647-.931 3.544l-63.179 36.43-5.16-10.174z" fill="#43a6d0"/><path d="M287.045 256.604l-7.37 4.571 3.657 7.54c.572 1.343 2.265 1.991 4.061.807l4.666-2.745z" fill="#6dbcd3"/><path d="M400.007 131.418l-7.702 21.407c-.281.776-.91 1.333-1.6.873l-26.927-13.637c-1.288-.628-1.077-1.561-.816-2.324l7.565-21.03c.228-.859.834-1.84 2.288-1.266l26.303 12.827c1.72.782 1.228 1.786.889 3.15z" fill="url(#J)" transform="matrix(-3.6651 .27483 0 3.65665 1700.203 -401.594)"/><path d="M400.116 129.01c.448.655.131 1.441-.109 2.408l-7.702 21.407c-.19.524-.539.949-.958 1.027" fill="url(#K)" stroke="#fff" transform="matrix(-3.6651 .27483 0 3.65665 1700.203 -401.594)"/></g><path d="M265.879 268.543l99.785-57.919c3.392-1.58 4.91-3.738 4.461-7.038" stroke="#fff"/></g><g transform="translate(-378.02 -82.686) scale(3.12053)"><path d="M405.247 196.302l29.768-17.54c.697-.818.648-1.636.1-2.454l-29.834 12.01z" fill="#475a6c"/><path d="M384.405 183.706l29.746-17.174 20.963 9.776-29.746 17.174z" fill="url(#L)"/><ellipse transform="matrix(.9792 .20294 -.23818 .97122 0 0)" ry=".64" rx="1.049" cy="100.233" cx="424.379" fill="#20306c"/><path d="M384.405 183.706c-.834.941-.502 1.72 0 2.474l20.842 10.122c.676-.75 1.067-1.592.067-2.873z" fill="#5e8297"/><ellipse transform="matrix(.9792 .20294 -.23818 .97122 0 0)" ry=".64" rx="1.049" cy="100.88" cx="427.181" fill="#20306c"/><path d="M413.906 169.27l-20.428 11.795 15.775 7.356 20.428-11.795z" fill="url(#M)"/><ellipse transform="matrix(.9792 .20294 -.23818 .97122 0 0)" ry=".64" rx="1.049" cy="103.139" cx="436.608" fill="#20306c"/><ellipse transform="matrix(.9792 .20294 -.23818 .97122 0 0)" ry=".64" rx="1.049" cy="100.082" cx="424.335" fill="#507c92"/><ellipse transform="matrix(.9792 .20294 -.23818 .97122 0 0)" ry=".64" rx="1.049" cy="103.787" cx="439.41" fill="#20306c"/><ellipse transform="matrix(.9792 .20294 -.23818 .97122 0 0)" ry=".64" rx="1.049" cy="100.729" cx="427.137" fill="#507c92"/><ellipse transform="matrix(.9792 .20294 -.23818 .97122 0 0)" ry="1.814" rx="2.973" cy="101.902" cx="431.916" fill="#21326f"/><ellipse transform="matrix(.9792 .20294 -.23818 .97122 0 0)" ry="1.814" rx="2.973" cy="101.986" cx="431.9" fill="#4d677b"/><ellipse transform="matrix(.9792 .20294 -.23818 .97122 0 0)" ry=".64" rx="1.049" cy="102.988" cx="436.564" fill="#507c92"/><ellipse transform="matrix(.9792 .20294 -.23818 .97122 0 0)" ry=".64" rx="1.049" cy="103.636" cx="439.366" fill="#507c92"/><ellipse transform="matrix(.9792 .20294 -.23818 .97122 0 0)" ry="1.171" rx="1.919" cy="101.779" cx="431.901" fill="#24387c"/><ellipse transform="matrix(.9792 .20294 -.23818 .97122 0 0)" ry="1.171" rx="1.919" cy="101.875" cx="431.877" fill="#4f7a8f"/><path d="M414.338 166.466l-29.665 17.285" stroke="url(#N)" stroke-width=".265"/><path d="M384.658 183.645l12.317 5.657" stroke="url(#O)" stroke-width=".32"/><path d="M393.478 181.065l20.428-11.795 15.775 7.356" stroke="#475a6c" stroke-width=".32"/></g><g><g fill="#000"><path transform="matrix(-3.02018 .78499 2.01255 2.38478 1895.107 1054.678)" d="M201.286-314.547h8.884l-2.629 11.242-11.17-.12z" fill="url(#P)"/><path transform="matrix(-3.07353 .5396 2.01255 2.38478 1895.107 1054.678)" d="M222.92-294.51h9.27v11.188l-10.574-.252z" fill="url(#Q)"/><path transform="matrix(-3.11042 .25058 2.01255 2.38478 1895.107 1054.678)" d="M250.838-267.762h9.849l2.676 11.37-12.525-.181z" fill="url(#R)"/><path transform="matrix(-3.1168 -.15203 2.01255 2.38478 1895.107 1054.678)" d="M294.075-221.35l12.533 2.194 9.551 13.606-16.615-2.962z" fill="url(#S)"/></g><path d="M493.382 433.877l27.94-2.654v27.942l-27.94 2.653z" fill="#fff"/><path d="M532.146 430.592l27.94-4.718v27.941l-27.94 4.718z" fill="#fff"/><path d="M571.955 423.09l27.94-7.371v27.94l-27.94 7.372z" fill="#fff"/><path d="M610.875 412.47l26.76-11.204v27.94l-26.76 11.206z" fill="#fff"/><path d="M495.887 436.38l23.073-1.899v19.996l-23.073 1.9z" fill="#aed8ed"/><path d="M534.546 433.265l23.25-3.947v19.64l-23.25 3.948z" fill="#aed8ed"/><path d="M574.254 425.097l23.355-6.16v20.187l-23.355 6.16z" fill="#aed8ed"/><path d="M613.272 414.06l21.86-9.06v20.078l-21.86 9.06z" fill="#aed8ed"/></g><g><path d="M646.504 482.706l49.12-28.36c3.015 7.874.532 14.795-8.44 20.528l-49.12 28.359c.817-5.18 1.554-16.365 8.44-20.527z" fill="#57a9c9"/><path d="M692.612 456.298c21.303-.489 39.059 41.402 40.347 60.855l-14.272 27.016-20.48 11.686c-2.197 3.89-12.446-2.444-14.366-10.343-3.72-17.172-17.362-60.542-40.32-60.863 16.325-9.51 32.72-18.912 49.09-28.353z" fill="#000" fill-opacity=".142"/><path d="M659.285 355.967c12.582 6.042 23.068 32.71 23.83 43.041l-8.43 9.603-12.095-.07c-1.298 1.342-7.351-4.926-8.485-9.533-2.197-9.88-10.253-36.092-23.813-43.035 9.642-.044 19.325-.011 28.993-.006z" transform="matrix(1.6932 -.97757 0 1.95512 -420.1 402.722)" fill="url(#T)"/><path d="M576.103 61.879l25.124-14.505c1.542 4.027 1.86 12.859-2.73 15.79L573.374 77.67c5.68-2.465 3.446-11.406 2.73-15.79z" fill="url(#U)" transform="translate(-420.1 402.722) scale(1.95512)"/></g><g><path d="M332.764 84.564c3.81-5.219 7.259-5.93 10.691-6.43v13.221c-3.612-.307-7.224 3.631-10.836 7.658z" fill="url(#V)" transform="matrix(-3.12053 0 0 3.12053 1643.123 -15.957)"/><path d="M332.69 84.587c.568 3.473 1.621 6.97 9.968 10.668l-.165 11.93c-7.693-3.411-9.203-5.301-9.803-8.09z" fill="url(#W)" transform="matrix(-3.12053 0 0 3.12053 1643.123 -15.957)"/><path d="M571.405 228.078c-.278-.1 30.45 6.21 32.943 21.057-12.862 29.754-30.684 30.675-30.65 32.11" stroke="#fff" stroke-width=".827"/></g><g><g><g><g stroke-width=".265"><path d="M512.43 529.74l.208 75.346 46.496 21.893v-75.5z" fill="#475a6c"/><path d="M293.87 139.611v-24.195l18.058-10.44-.085 24.345z" fill="url(#X)" transform="translate(-357.893 191.32) scale(3.12053)"/><path d="M278.906 108.452l17.358-10.022c.69-.2.915-.161 1.663.017l14.001 6.529-18.059 10.456z" fill="url(#Y)" transform="translate(-357.893 191.32) scale(3.12053)"/><path d="M311.934 105.07l-13.898-6.472c-.451-.274-1.47-.276-1.896-.03l-17.234 9.973" stroke="url(#Z)" transform="translate(-357.893 191.32) scale(3.12053)"/></g><g transform="matrix(3.12053 1.4551 0 3.12053 -257.783 -266.547)"><circle cx="251.889" cy="143.498" r=".945" fill="#999"/><circle cx="256.642" cy="143.498" r=".945" fill="#999"/><circle cx="251.889" cy="147.731" r=".945" fill="#999"/><circle cx="256.642" cy="147.731" r=".945" fill="#999"/><ellipse transform="skewY(.546) scale(.99995 1)" ry="3.458" rx="3.388" cy="143.114" cx="254.295" fill="#999"/><ellipse transform="skewY(.546) scale(.99995 1)" ry="2.452" rx="2.403" cy="143.114" cx="254.295" fill="url(#aa)"/><ellipse transform="skewY(.546) scale(.99995 1)" ry="1.666" rx="1.633" cy="143.114" cx="254.295" fill="url(#ab)"/><ellipse transform="skewY(.546) scale(.99995 1)" ry="1.349" rx="1.322" cy="143.114" cx="254.295" fill="url(#ac)"/><circle cx="251.889" cy="143.498" r=".402" fill="#ccc"/><circle cx="256.64" cy="143.498" r=".402" fill="#ccc"/><circle cx="251.889" cy="147.731" r=".402" fill="#ccc"/><circle cx="256.64" cy="147.731" r=".402" fill="#ccc"/></g><g transform="matrix(3.12053 1.4551 0 3.12053 -258.62 -232.926)"><ellipse cx="254.295" cy="143.114" rx="5.926" ry="6.047" transform="skewY(.546) scale(.99995 1)" fill="#999"/><path d="M254.283 139.492a6.053 5.92 77.635 00-3.68 1.273.945.945 0 00-.713-.33.945.945 0 00-.945.946.945.945 0 00.402.773 6.053 5.92 77.635 00-.989 3.328 6.053 5.92 77.635 00.972 3.322.945.945 0 00-.385.76.945.945 0 00.945.945.945.945 0 00.685-.296 6.053 5.92 77.635 003.708 1.373 6.053 5.92 77.635 003.706-1.295.945.945 0 00.604.218.945.945 0 00.944-.945.945.945 0 00-.292-.682 6.053 5.92 77.635 00.964-3.287 6.053 5.92 77.635 00-1.061-3.45.945.945 0 00.39-.764.945.945 0 00-.945-.945.945.945 0 00-.722.334 6.053 5.92 77.635 00-3.588-1.278z" fill="#fff" stroke="#4d4d4d" stroke-width=".252"/><path d="M254.283 139.77a6.053 5.92 77.635 00-3.68 1.273.945.945 0 00-.713-.328.945.945 0 00-.945.945.945.945 0 00.402.773 6.053 5.92 77.635 00-.989 3.328 6.053 5.92 77.635 00.972 3.322.945.945 0 00-.385.76.945.945 0 00.945.944.945.945 0 00.685-.296 6.053 5.92 77.635 003.708 1.373 6.053 5.92 77.635 003.706-1.295.945.945 0 00.604.218.945.945 0 00.944-.945.945.945 0 00-.292-.681 6.053 5.92 77.635 00.964-3.287 6.053 5.92 77.635 00-1.061-3.451.945.945 0 00.39-.763.945.945 0 00-.945-.945.945.945 0 00-.722.334 6.053 5.92 77.635 00-3.588-1.278z" fill="#999"/><ellipse cx="254.295" cy="143.114" rx="4.699" ry="4.795" transform="skewY(.546) scale(.99995 1)" fill="url(#ad)"/><ellipse cx="254.295" cy="143.114" rx="3.221" ry="3.287" transform="skewY(.546) scale(.99995 1)" fill="url(#ae)"/><ellipse cx="254.295" cy="143.114" rx="1.322" ry="1.349" transform="skewY(.546) scale(.99995 1)" fill="url(#af)"/><circle r=".945" cy="141.381" cx="249.889" fill="#999"/><circle r=".945" cy="141.381" cx="258.592" fill="#999"/><circle r=".402" cy="141.381" cx="249.889" fill="#ccc"/><circle r=".402" cy="141.381" cx="258.589" fill="#ccc"/><circle r=".945" cy="149.564" cx="249.889" fill="#999"/><circle r=".945" cy="149.564" cx="258.592" fill="#999"/><circle r=".402" cy="149.564" cx="249.889" fill="#ccc"/><circle r=".402" cy="149.564" cx="258.589" fill="#ccc"/></g></g><path d="M615.224 594.871l.265-75.97" stroke="#5997b1"/></g><path d="M512.443 529.748l40.737 18.978" stroke="url(#ag)"/><path d="M559.137 551.478l.26 44.94" stroke="#647a8d"/></g><path d="M311.05 466.19v-86.113" stroke="#030f42" stroke-width=".827"/></g></svg>